<?xml version="1.0" encoding="UTF-8" standalone="no"?>
<svg
   xmlns:osb="http://www.openswatchbook.org/uri/2009/osb"
   xmlns:dc="http://purl.org/dc/elements/1.1/"
   xmlns:cc="http://creativecommons.org/ns#"
   xmlns:rdf="http://www.w3.org/1999/02/22-rdf-syntax-ns#"
   xmlns:svg="http://www.w3.org/2000/svg"
   xmlns="http://www.w3.org/2000/svg"
   xmlns:xlink="http://www.w3.org/1999/xlink"
   xmlns:sodipodi="http://sodipodi.sourceforge.net/DTD/sodipodi-0.dtd"
   xmlns:inkscape="http://www.inkscape.org/namespaces/inkscape"
   viewBox="0 0 359.95828 256.42682"
   version="1.1"
   id="svg6257"
   height="256.42682"
   width="359.95828"
   inkscape:version="0.91 r13725"
   sodipodi:docname="logo_main.svg">
  <sodipodi:namedview
     pagecolor="#ffffff"
     bordercolor="#666666"
     borderopacity="1"
     objecttolerance="10"
     gridtolerance="10"
     guidetolerance="10"
     inkscape:pageopacity="0"
     inkscape:pageshadow="2"
     inkscape:window-width="1920"
     inkscape:window-height="1020"
     id="namedview4283"
     showgrid="false"
     inkscape:zoom="3.0407782"
     inkscape:cx="189.71005"
     inkscape:cy="114.28667"
     inkscape:window-x="1920"
     inkscape:window-y="456"
     inkscape:window-maximized="1"
     inkscape:current-layer="svg6257"
     fit-margin-top="0"
     fit-margin-left="0"
     fit-margin-right="0"
     fit-margin-bottom="0" />
  <defs
     id="defs6259">
    <linearGradient
       id="linearGradient4166"
       osb:paint="solid">
      <stop
         style="stop-color:#ffffff;stop-opacity:1;"
         offset="0"
         id="stop4168" />
    </linearGradient>
    <linearGradient
       gradientTransform="matrix(0.24844368,0,0,0.24844368,-532.43082,385.90713)"
       gradientUnits="userSpaceOnUse"
       y2="813.1687"
       x2="240.61998"
       y1="813.1687"
       x1="77.952011"
       id="linearGradient5317-0"
       xlink:href="#linearGradient5307" />
    <linearGradient
       osb:paint="solid"
       id="linearGradient5307">
      <stop
         id="stop5309"
         offset="0"
         style="stop-color:#1dd1a1;stop-opacity:1;" />
    </linearGradient>
    <linearGradient
       gradientTransform="matrix(0.24844368,0,0,0.24844368,-712.43082,385.90713)"
       gradientUnits="userSpaceOnUse"
       y2="813.1687"
       x2="240.61998"
       y1="813.1687"
       x1="77.952011"
       id="linearGradient5317"
       xlink:href="#linearGradient5307" />
    <linearGradient
       gradientTransform="matrix(0.87813617,0,0,0.97999994,-882.99179,-0.58119595)"
       gradientUnits="userSpaceOnUse"
       y2="613.79071"
       x2="441.42856"
       y1="613.79071"
       x1="242.14285"
       id="linearGradient5275"
       xlink:href="#linearGradient5307" />
    <linearGradient
       y2="752.36218"
       x2="685.17627"
       y1="752.36218"
       x1="114.82375"
       gradientTransform="translate(-818.76607,-223.57215)"
       gradientUnits="userSpaceOnUse"
       id="linearGradient5234"
       xlink:href="#linearGradient5295" />
    <linearGradient
       osb:paint="solid"
       id="linearGradient5295">
      <stop
         id="stop5297"
         offset="0"
         style="stop-color:#c8d6e5;stop-opacity:1;" />
    </linearGradient>
    <linearGradient
       gradientUnits="userSpaceOnUse"
       y2="632.13873"
       x2="186.99026"
       y1="632.13873"
       x1="123.1266"
       id="linearGradient5537"
       xlink:href="#linearGradient5295" />
    <linearGradient
       gradientTransform="matrix(0.77768703,0,0,0.72378589,-1493.862,16.636342)"
       gradientUnits="userSpaceOnUse"
       y2="720.93359"
       x2="1402.8571"
       y1="720.93359"
       x1="940"
       id="linearGradient5293"
       xlink:href="#linearGradient5289" />
    <linearGradient
       osb:paint="solid"
       id="linearGradient5289">
      <stop
         id="stop5291"
         offset="0"
         style="stop-color:#222f3e;stop-opacity:1;" />
    </linearGradient>
    <linearGradient
       inkscape:collect="always"
       xlink:href="#linearGradient5307"
       id="linearGradient5317-0-3"
       x1="77.952011"
       y1="813.1687"
       x2="240.61998"
       y2="813.1687"
       gradientUnits="userSpaceOnUse"
       gradientTransform="matrix(0.24844368,0,0,0.24844368,230.40543,-24.317456)" />
    <linearGradient
       inkscape:collect="always"
       xlink:href="#linearGradient5307"
       id="linearGradient5317-7"
       x1="77.952011"
       y1="813.1687"
       x2="240.61998"
       y2="813.1687"
       gradientUnits="userSpaceOnUse"
       gradientTransform="matrix(0.24844368,0,0,0.24844368,50.405429,-24.317456)" />
    <linearGradient
       inkscape:collect="always"
       xlink:href="#linearGradient5307"
       id="linearGradient5275-5"
       x1="242.14285"
       y1="613.79071"
       x2="441.42856"
       y2="613.79071"
       gradientUnits="userSpaceOnUse"
       gradientTransform="matrix(0.87813617,0,0,0.97999994,-120.15554,-410.80579)" />
    <linearGradient
       inkscape:collect="always"
       xlink:href="#linearGradient5295"
       id="linearGradient5234-3"
       gradientUnits="userSpaceOnUse"
       gradientTransform="translate(-55.929821,-633.79674)"
       x1="114.82375"
       y1="752.36218"
       x2="685.17627"
       y2="752.36218" />
    <linearGradient
       inkscape:collect="always"
       xlink:href="#linearGradient5295"
       id="linearGradient5537-6"
       x1="123.1266"
       y1="632.13873"
       x2="186.99026"
       y2="632.13873"
       gradientUnits="userSpaceOnUse" />
    <linearGradient
       inkscape:collect="always"
       xlink:href="#linearGradient5295"
       id="linearGradient4170"
       x1="162.4791"
       y1="51.917839"
       x2="197.4791"
       y2="51.917839"
       gradientUnits="userSpaceOnUse" />
    <linearGradient
       inkscape:collect="always"
       xlink:href="#linearGradient5295"
       id="linearGradient4172"
       x1="132.4791"
       y1="56.674541"
       x2="157.4791"
       y2="56.674541"
       gradientUnits="userSpaceOnUse" />
    <linearGradient
       inkscape:collect="always"
       xlink:href="#linearGradient5295"
       id="linearGradient4174"
       x1="202.4791"
       y1="56.674541"
       x2="227.4791"
       y2="56.674541"
       gradientUnits="userSpaceOnUse" />
  </defs>
  <metadata
     id="metadata6262">
    <rdf:RDF>
      <cc:Work
         rdf:about="">
        <dc:format>image/svg+xml</dc:format>
        <dc:type
           rdf:resource="http://purl.org/dc/dcmitype/StillImage" />
        <dc:title />
      </cc:Work>
    </rdf:RDF>
  </metadata>
  <path
     sodipodi:type="star"
     style="fill:none;fill-opacity:1;stroke:url(#linearGradient5537-6);stroke-width:1.78860915;stroke-miterlimit:4;stroke-dasharray:none;stroke-opacity:1"
     id="path5429"
     sodipodi:sides="6"
     sodipodi:cx="155.05843"
     sodipodi:cy="632.13873"
     sodipodi:r1="34.787987"
     sodipodi:r2="30.127281"
     sodipodi:arg1="0.52359878"
     sodipodi:arg2="1.0471976"
     inkscape:flatsided="true"
     inkscape:rounded="0.1"
     inkscape:randomized="0"
     d="m 185.18571,649.53273 c -1.7394,3.01272 -26.64849,17.39399 -30.12728,17.39399 -3.4788,0 -28.38789,-14.38127 -30.12728,-17.39399 -1.7394,-3.01273 -1.7394,-31.77526 0,-34.78799 1.7394,-3.01273 26.64848,-17.39399 30.12728,-17.39399 3.47879,0 28.38788,14.38126 30.12728,17.39399 1.7394,3.01273 1.7394,31.77526 0,34.78799 z"
     transform="matrix(5.5676046,0,0,3.5931944,-683.32487,-2143.1839)" />
  <path
     style="font-style:normal;font-weight:normal;font-size:40px;line-height:125%;font-family:sans-serif;letter-spacing:0px;word-spacing:0px;fill:url(#linearGradient5234-3);fill-opacity:1;stroke:none;stroke-width:1px;stroke-linecap:butt;stroke-linejoin:miter;stroke-opacity:1"
     d="m 66.009379,90.646244 2.59961,0.69726 c -0.24014,-0.44826 -0.49522,-0.69726 -0.99414,-0.69726 l -1.60547,0 z m 21.04493,0 c -0.56001,0 -1.1211,0.47914 -1.1211,1.11914 l 0,0.0781 7.52149,2.01563 0,-2.07031 -4.26368,-1.14258 -2.13671,0 z m 45.812501,0 c -0.61412,0 -1.06872,0.51626 -1.10547,1.05273 l 7.42578,1.99024 0,-1.92383 c 0,-0.0526 -0.023,-0.10212 -0.0312,-0.1543 l -3.59961,-0.96484 -2.68945,0 z m 17.64648,0 c -0.64,0 -1.11914,0.47914 -1.11914,1.11914 l 0,0.51758 7.43945,1.99414 0,-2.07031 -5.82226,-1.56055 -0.49805,0 z m 25.20117,0 c -0.32106,0 -0.58193,0.0605 -0.8125,0.19141 l 7.35938,1.9707 0.8125,-1.04297 c 0.2267,-0.27205 0.16459,-0.59112 -0.043,-0.82031 l -1.11328,-0.29883 -6.20313,0 z m 15.98633,0 c -0.32629,0 -0.60789,0.12686 -0.80859,0.33398 l 26.51757,7.10547 3.33204,0 c 0.48941,0 0.97816,-0.36706 1.09374,-0.88672 l -24.45898,-6.55273 -5.67578,0 z m 13.40234,0 16.75782,4.49023 0,-2.07031 -9.0293,-2.41992 -7.72852,0 z m 15.45508,0 0.78711,0.21094 c -0.18347,-0.12371 -0.38823,-0.21094 -0.60351,-0.21094 l -0.1836,0 z m 16.3711,0 c -0.23197,0 -0.44363,0.0284 -0.6504,0.0723 l 28.81055,7.71876 0,-0.27149 c 0,-0.49144 -3.3e-4,-1.22937 -0.54101,-1.94336 l -20.81055,-5.57617 -6.80859,0 z m 14.53515,0 10.24609,2.74609 -1.98046,-1.94531 c -0.72,-0.72 -1.36,-0.80078 -2,-0.80078 l -6.26563,0 z m 30.91016,0 26.66601,7.14453 c -0.0552,-0.68135 -0.29822,-1.30603 -0.85742,-1.86523 l -0.59375,-0.59375 -17.48437,-4.68555 -7.73047,0 z m 15.45703,0 6.92969,1.85742 -1.05664,-1.05664 c -0.72,-0.72 -1.52008,-0.80078 -2.08008,-0.80078 l -3.79297,0 z m -193.12305,0.0176 c -0.55782,0.0841 -0.96094,0.58962 -0.96094,1.10156 l 0,0.71094 7.43946,1.99414 0,-2.07031 -6.47852,-1.73633 z m 170.86524,0.23047 c -0.2582,0.20126 -0.42969,0.50177 -0.42969,0.87109 l 0,1.08398 19.54297,5.23633 3.97656,0 c 0.32,0 0.40055,1.6e-4 0.56055,0.16016 l 1.4414,1.44141 8.39844,2.249986 0,-2.070306 -33.49023,-8.97265 z m -216.283211,0.0215 c -0.24009,0.20194 -0.39648,0.49516 -0.39648,0.84961 l 0,1.11523 11.83398,3.17188 -1.05078,-2.35352 -10.38672,-2.7832 z m 174.917971,1.31836 -1.65625,1.62695 15.76953,4.22461 6.76758,0 c 0.16,0 0.32055,2.4e-4 0.56055,0.24024 l 2,1.999986 0,0.25976 7.43945,1.99219 0,-2.07031 -30.88086,-8.273426 z m -60.7539,0.28516 -1.3086,1.71875 7.45117,1.99804 1.33204,-1.71484 -7.47461,-2.00195 z m 17.12695,0.44921 0,2.07032 11.375,3.04687 7.72656,0 -19.10156,-5.11719 z m -58.83399,0.79883 0,2.07032 7.43946,1.99414 0,-2.07032 -7.43946,-1.99414 z m -45.814451,0.14649 0,2.07031 7.52149,2.01563 0,-2.07032 -7.52149,-2.01562 z m 63.460941,0.43945 0,2.07031 7.43945,1.99414 0,-2.07031 -7.43945,-1.99414 z m -45.64649,0.19336 0,2.07031 7.43946,1.99414 0,-2.07031 -7.43946,-1.99414 z m 171.39649,0.375 0,2.07031 7.43945,1.99219 0,-0.89844 4.37305,0 -11.8125,-3.16406 z m -216.250001,0.0312 0,2.07031 13.9375,3.734366 -1.05078,-2.351556 -12.88672,-3.45312 z m 172.003901,0.5332 -0.44726,0.43946 c -0.44169,0.44169 -0.6467,0.81674 -0.73633,1.3164 l 8.25,2.20899 1.125,-1.125 c 0.24,-0.24 0.40055,-0.24024 0.56055,-0.24024 l 0.94531,0 -9.69727,-2.59961 z m -60.0625,0.47071 -1.31054,1.7207 7.40625,1.98437 1.33398,-1.71289 -7.42969,-1.99218 z m 19.7461,1.15234 0,2.07031 7.43945,1.992176 0,-2.070296 -7.43945,-1.99219 z m -58.83399,0.79883 0,2.07031 7.43946,1.994126 0,-2.070296 -7.43946,-1.99414 z m -45.814451,0.14648 0,2.070306 7.52149,2.01562 0,-2.07031 -7.52149,-2.015616 z m 63.460941,0.44141 0,2.070296 7.43945,1.99414 0,-2.07031 -7.43945,-1.994126 z m -45.64649,0.19141 0,2.070296 7.43946,1.99414 0,-2.07031 -7.43946,-1.994126 z m 171.39649,0.375 0,2.070296 7.43945,1.99219 0,-2.07032 -7.43945,-1.992166 z m -216.250001,0.0312 0,2.070306 16.03906,4.29687 -1.05078,-2.35156 -14.98828,-4.015616 z m 170.755861,0.20118 0,2.070296 7.43945,1.99414 0,-2.07227 -7.43945,-1.992166 z m -61.43555,0.10156 -1.31055,1.718736 7.36329,1.97461 1.33203,-1.71484 -7.38477,-1.978506 z m 22.36719,1.853506 0,2.07031 7.43945,1.99219 0,-2.07032 -7.43945,-1.99218 z m 111.04297,0.76562 0,2.07031 7.43945,1.99414 0,-2.07031 -7.43945,-1.99414 z m -169.87696,0.0332 0,2.07032 7.43946,1.99414 0,-2.07032 -7.43946,-1.99414 z m -45.814451,0.14844 0,2.07031 7.52149,2.01563 0,-2.07031 -7.52149,-2.01563 z m 63.460941,0.43945 0,2.07032 7.43945,1.99414 0,-2.07032 -7.43945,-1.99414 z m 108.25586,0.0195 0,2.07032 7.43945,1.99414 0,-2.07227 -7.43945,-1.99219 z m -153.90235,0.17188 0,2.07031 7.43946,1.99414 0,-2.07031 -7.43946,-1.99414 z m 61.84375,0.008 -1.31054,1.71875 7.32031,1.96289 1.33203,-1.71484 -7.3418,-1.9668 z m 109.55274,0.36719 0,2.07031 7.43945,1.99219 0,-2.07031 -7.43945,-1.99219 z m -216.250001,0.0312 0,2.07031 7.43945,1.99219 0,-2.07031 -7.43945,-1.99219 z m 170.755861,0.20117 0,2.07031 7.43945,1.99415 0,-2.07032 -7.43945,-1.99414 z m -162.847661,1.91797 1.08008,2.35938 9.15039,2.45117 -1.05078,-2.35156 -9.17969,-2.45899 z m 123.779301,0.0371 0,2.07031 7.43945,1.99414 0,-2.07031 -7.43945,-1.99414 z m 111.04297,0.76562 0,2.07032 7.43945,1.99414 0,-2.07031 -7.43945,-1.99415 z m -169.87696,0.0332 0,2.07226 7.43946,1.99219 0,-2.07031 -7.43946,-1.99414 z m 31.22266,0.0859 -1.31055,1.71875 7.27539,1.94921 1.33204,-1.71289 -7.29688,-1.95507 z m -77.037111,0.0625 0,2.07031 7.52149,2.01562 0,-2.07031 -7.52149,-2.01562 z m 63.460941,0.43945 0,2.07031 7.43945,1.99414 0,-2.07031 -7.43945,-1.99414 z m 108.25586,0.0195 0,2.07227 7.43945,1.99218 0,-2.07031 -7.43945,-1.99414 z m -153.90235,0.17383 0,2.07031 7.43946,1.99414 0,-2.07031 -7.43946,-1.99414 z m 171.39649,0.37304 0,2.07032 7.43945,1.99414 0,-2.07227 -7.43945,-1.99219 z m -216.250001,0.0313 0,2.07031 7.43945,1.99414 0,-2.07031 -7.43945,-1.99414 z m 170.755861,0.20117 0,2.07031 7.43945,1.99414 0,-2.07031 -7.43945,-1.99414 z m -39.06836,1.95703 0,2.07031 7.43945,1.99219 0,-2.07031 -7.43945,-1.99219 z m -30.23242,0.17969 -1.31055,1.7207 11.23437,3.00976 -1.04492,-2.35156 -8.8789,-2.3789 z m -91.388681,0.35937 1.07813,2.35938 9.0957,2.4375 -1.05078,-2.35157 -9.12305,-2.44531 z m 232.664071,0.22461 0,2.07031 7.43945,1.99414 0,-2.07031 -7.43945,-1.99414 z m -169.87696,0.0352 0,2.07031 7.43946,1.99219 0,-2.07032 -7.43946,-1.99218 z m -45.814451,0.14648 0,2.07031 7.52149,2.01563 0,-2.07031 -7.52149,-2.01563 z m 63.460941,0.43945 0,2.07227 22.97266,6.1543 -1.04688,-2.35157 -13.5918,-3.64062 -0.89453,1.17383 0,-1.41407 -7.43945,-1.99414 z m 108.25586,0.0215 0,2.07031 7.43945,1.99219 0,-2.07031 -7.43945,-1.99219 z m -153.90235,0.17187 0,2.07032 7.43946,1.99414 0,-2.07032 -7.43946,-1.99414 z m 171.39649,0.37305 0,2.07227 7.43945,1.99218 0,-2.07031 -7.43945,-1.99414 z m -216.250001,0.0312 0,2.07227 7.43945,1.99218 0,-2.07031 -7.43945,-1.99414 z m 170.755861,0.20117 0,2.07031 7.43945,1.99414 0,-2.07031 -7.43945,-1.99414 z m -39.06836,1.95703 0,2.07032 24.26758,6.50195 1.09179,0 c 0.64,0 1.1211,-0.47914 1.1211,-1.11914 l 0,-0.35742 -26.48047,-7.09571 z m 111.04297,0.76368 0,1.16796 -0.32031,0.56055 -0.20899,0.20117 7.96875,2.13672 0,-2.07226 -7.43945,-1.99414 z m -169.87696,0.0371 0,2.07032 7.43946,1.99218 0,-2.07031 -7.43946,-1.99219 z m -45.814451,0.14454 0,2.07031 7.52149,2.01562 0,-2.07031 -7.52149,-2.01562 z m -14.81445,0.17187 1.07812,2.36133 9.04102,2.42187 -1.05274,-2.35351 -9.0664,-2.42969 z m 131.419921,0.0156 14.52344,3.89062 0,-2.07031 -6.79688,-1.82031 -7.72656,0 z m -53.14453,0.2539 0,2.07031 11.65039,3.1211 1.3457,-1.71094 -12.99609,-3.48047 z m 108.25586,0.0195 0,2.07032 7.43945,1.99218 0,-2.07031 -7.43945,-1.99219 z m -153.90235,0.17188 0,2.07031 7.43946,1.99414 0,-2.07031 -7.43946,-1.99414 z m 171.39649,0.375 0,2.07031 28.28711,7.57813 c 0.0909,-0.0754 0.18016,-0.13525 0.27344,-0.22852 l 1.39453,-1.39453 -19.28125,-5.16602 -3.23438,0 0,-0.86718 -7.43945,-1.99219 z m -216.250001,0.0312 0,2.07031 7.43945,1.99219 0,-2.07031 -7.43945,-1.99219 z m 170.755861,0.20117 0,2.07031 7.43945,1.99219 0,-2.07031 -7.43945,-1.99219 z m -39.06836,1.95508 0,2.07031 8.81445,2.36133 7.72656,0 -16.54101,-4.43164 z m 108.82812,0.17187 -0.18554,0.17969 c -0.16,0.16 -0.32047,0.24031 -0.48047,0.32031 l -5.19922,0 13.18555,3.53321 1.45312,-1.45313 c 0.0585,-0.0585 0.10305,-0.12564 0.15625,-0.1875 l -8.92969,-2.39258 z m -167.66211,0.62891 0,2.07031 7.43946,1.99219 0,-2.07031 -7.43946,-1.99219 z m -45.814451,0.14453 0,2.07227 7.52149,2.01562 0,-2.07226 -7.52149,-2.01563 z m 78.101561,0.22266 1.04688,2.35156 9.37695,2.51172 -1.04687,-2.34961 -9.37696,-2.51367 z m -14.64062,0.21875 0,2.07031 8.95898,2.40234 1.34571,-1.71093 -10.30469,-2.76172 z m 108.25586,0.0195 0,2.07031 7.43945,1.99219 0,-2.07031 -7.43945,-1.99219 z m -153.90235,0.17187 0,2.07032 7.43946,1.99414 0,-2.07032 -7.43946,-1.99414 z m -30.470701,0.11914 1.07813,2.35938 8.98437,2.40625 -1.05078,-2.35156 -9.01172,-2.41407 z m 201.867191,0.25586 0,2.07032 15.25781,4.08789 7.72656,0 -22.98437,-6.15821 z m -216.250001,0.0312 0,2.07032 7.43945,1.99218 0,-2.07031 -7.43945,-1.99219 z m 170.755861,0.20118 0,2.07031 7.43945,1.99414 0,-2.07031 -7.43945,-1.99414 z m -39.06836,1.95507 0,2.07032 7.43945,1.99414 0,-2.07227 -7.43945,-1.99219 z m -58.83399,0.80078 0,2.07032 7.43946,1.99218 0,-2.07031 -7.43946,-1.99219 z m -45.814451,0.14649 0,2.07031 7.52149,2.01563 0,-2.07032 -7.52149,-2.01562 z m 63.460941,0.43945 0,2.07031 7.43945,1.99414 0,-1.80078 0.17578,-0.22265 -7.61523,-2.04102 z m 108.25586,0.0195 0,2.07032 7.43945,1.99414 0,-2.07032 -7.43945,-1.99414 z m -153.90235,0.17188 0,2.07226 7.43946,1.99414 0,-2.07226 -7.43946,-1.99414 z m 62.38282,0.1543 1.04883,2.3496 9.37109,2.51172 -1.04492,-2.34961 -9.375,-2.51171 z m 109.01367,0.2207 0,2.07031 7.43945,1.99219 0,-2.04492 0.0918,0 -7.53125,-2.01758 z m -216.250001,0.0312 0,2.07031 7.43945,1.99219 0,-2.07031 -7.43945,-1.99219 z m 170.755861,0.20312 0,2.07032 7.43945,1.99218 0,-2.07031 -7.43945,-1.99219 z m -154.216801,0.0879 1.08008,2.35938 8.92578,2.39258 -1.05078,-2.35352 -8.95508,-2.39844 z m 115.148441,1.86524 0,2.07031 7.43945,1.99414 0,-2.07031 -7.43945,-1.99414 z m -58.83399,0.80078 0,2.07031 7.43946,1.99219 0,-2.07031 -7.43946,-1.99219 z m -45.814451,0.14648 0,2.07032 7.52149,2.01562 0,-2.07031 -7.52149,-2.01563 z m 63.460941,0.43946 0,2.07031 7.43945,1.99414 0,-2.07031 -7.43945,-1.99414 z m 108.25586,0.0215 0,2.07031 7.43945,1.99219 0,-2.07031 -7.43945,-1.99219 z m -153.90235,0.17188 0,2.07031 7.43946,1.99414 0,-2.07031 -7.43946,-1.99414 z m 171.39649,0.37304 0,2.07032 7.43945,1.99414 0,-2.07032 -7.43945,-1.99414 z m -216.250001,0.0312 0,2.07032 7.43945,1.99414 0,-2.07032 -7.43945,-1.99414 z m 170.755861,0.20313 0,2.07031 7.43945,1.99219 0,-2.07031 -7.43945,-1.99219 z m -61.42383,0.10547 1.04883,2.35156 9.36719,2.50977 -1.04493,-2.34961 -9.37109,-2.51172 z m -90.634771,0.56054 1.07813,2.35938 14.78516,3.96094 0,-2.07032 -15.86329,-4.25 z m 112.990241,1.28907 0,2.07031 7.43945,1.99414 0,-2.07031 -7.43945,-1.99414 z m -58.83399,0.79882 0,2.07227 7.43946,1.99219 0,-2.07227 -7.43946,-1.99219 z m 17.64649,0.5879 0,2.07031 7.43945,1.99219 0,-2.07032 -7.43945,-1.99218 z m 108.25586,0.0195 0,2.07031 7.43945,1.99219 0,-2.07032 -7.43945,-1.99218 z m -153.90235,0.17187 0,2.07031 7.43946,1.99414 0,-2.07031 -7.43946,-1.99414 z m 171.39649,0.375 0,2.07031 7.43945,1.99219 0,-2.07031 -7.43945,-1.99219 z m -216.250001,0.0312 0,2.07031 7.43945,1.99219 0,-2.07031 -7.43945,-1.99219 z m 170.755861,0.20117 0,2.07032 7.45898,1.99804 c -0.005,-0.0294 -0.0195,-0.0561 -0.0195,-0.0859 l 0,-1.99023 -7.43945,-1.99219 z m -59.32813,0.66797 1.04883,2.34961 9.36328,2.50977 -1.04492,-2.34961 -9.36719,-2.50977 z m -90.572261,0.57617 1.07812,2.35938 12.62696,3.38281 0,-2.07031 -13.70508,-3.67188 z m 110.832031,0.71094 0,2.07031 7.43945,1.99414 0,-2.07031 -7.43945,-1.99414 z m -58.83399,0.80078 0,1.22656 c 0,0.16001 -0.0802,0.24032 -0.16015,0.32032 l -0.37891,0.3789 7.96875,2.13477 c 0.001,-0.0394 0.01,-0.0727 0.01,-0.11328 l 0,-1.95508 -7.43946,-1.99219 z m 17.64649,0.58594 0,2.07031 7.43945,1.99414 0,-2.07226 -7.43945,-1.99219 z m 108.25586,0.0195 0,0.62109 c 0,0.16001 -0.0802,0.3204 -0.16016,0.4004 l -0.79297,0.79296 8.25,2.21094 c 0.09,-0.33728 0.14258,-0.69385 0.14258,-1.08398 l 0,-0.94922 -7.43945,-1.99219 z m -153.90235,0.17188 0,2.07031 29.64844,7.94531 c 0.15615,-0.11242 0.30087,-0.23641 0.43164,-0.36719 l 1.25196,-1.25195 -19.80274,-5.30664 -0.96875,0 c -0.32,0 -0.5607,-0.16031 -0.7207,-0.32031 l -0.19141,-0.1836 -9.64844,-2.58593 z m 171.39649,0.375 0,2.07031 7.43945,1.99219 0,-2.07032 -7.43945,-1.99218 z m -216.250001,0.0312 0,2.07031 7.43945,1.99414 0,-2.07227 -7.43945,-1.99218 z m 170.755861,0.20117 0,2.07031 28.86328,7.73438 c 0.50946,-0.15042 0.88686,-0.43374 1.2168,-0.76368 l 0.77343,-0.77343 -30.85351,-8.26758 z m -57.23047,1.23047 1.04687,2.34961 9.36133,2.50781 -1.04687,-2.34961 -9.36133,-2.50781 z m -90.511721,0.59375 1.07813,2.35937 10.46875,2.80469 0,-2.07031 -11.54688,-3.09375 z m 108.673831,0.13086 0,2.07031 22.00586,5.89648 7.72656,0 -29.73242,-7.96679 z m -61.00977,0.21679 c -0.16334,0.15643 -0.47384,0.31055 -0.94336,0.31055 l -5.625,0 13.71094,3.67383 1.59375,-1.59375 c 0.0139,-0.0139 0.0216,-0.0272 0.0352,-0.041 l -8.77149,-2.34961 z m 70.70508,0.31055 21.58399,5.7832 0,-2.07031 -13.85743,-3.71289 -7.72656,0 z m 15.45313,0 6.13086,1.64258 0,-0.52344 c 0,-0.64 -0.55914,-1.11914 -1.11914,-1.11914 l -5.01172,0 z m 30.91211,0 15.49609,4.15234 1.63281,-1.63281 -9.40039,-2.51953 -7.72851,0 z m -97.24805,0.85937 0,2.07032 7.43945,1.99414 0,-2.07031 -7.43945,-1.99415 z m -45.43164,0.25 c 0.15014,0.35983 0.37295,0.67765 0.66601,0.97071 l 1.7461,1.74609 13.48633,3.61328 7.72656,0 -23.625,-6.33008 z m 171.18164,0.31641 0,2.07031 7.43945,1.99219 0,-2.07031 -7.43945,-1.99219 z m -216.250001,0.0312 0,2.07031 7.43945,1.99414 0,-2.07031 -7.43945,-1.99414 z m 171.443361,0.38672 c 0.066,0.0788 0.11447,0.15744 0.19336,0.23633 l 2.57617,2.57617 10.38672,2.7832 7.72656,0 -20.88281,-5.5957 z m -55.82227,1.60547 1.04883,2.35351 6.11133,1.63672 1.39844,0 c 0.64,0 1.20093,-0.55914 0.96093,-1.11914 l -0.16211,-0.36328 -9.35742,-2.50781 z m 16.06641,0.16406 0,2.07031 6.55078,1.75586 7.72656,0 -14.27734,-3.82617 z m -106.517581,0.44727 1.07031,2.33984 c 0.003,0.007 0.008,0.013 0.0117,0.0195 l 3.80274,1.01953 3.30468,0 c 0.55341,0 1.04649,-0.36019 1.16993,-0.87109 l -9.35938,-2.50781 z m 65.330081,0.93945 0,1.32031 c 0,0.36353 0.16493,0.66164 0.41601,0.86328 l 0.95704,0.25586 4.94726,0 c 0.40081,0 0.72127,-0.20207 0.91797,-0.5 l -7.23828,-1.93945 z m 125.75,0.56641 0,0.7539 c 0,0.64 0.47914,1.11914 1.11914,1.11914 l 5.20117,0 c 0.1404,0 0.269,-0.0333 0.39063,-0.0762 l -6.71094,-1.79687 z m -216.250001,0.0312 0,0.72265 c 0,0.64 0.47914,1.11914 1.11914,1.11914 l 5.20117,0 c 0.11581,0 0.21883,-0.033 0.32227,-0.0625 l -6.64258,-1.77929 z m 50.328121,1.0625 c 0.45724,0.43135 1.00267,0.77929 1.96485,0.77929 l 0.9414,0 -2.90625,-0.77929 z"
     id="text4155-7"
     inkscape:connector-curvature="0" />
  <path
     style="font-style:normal;font-weight:normal;font-size:40px;line-height:125%;font-family:sans-serif;letter-spacing:0px;word-spacing:0px;fill:#ffffff;fill-opacity:1;stroke:none;stroke-width:1px;stroke-linecap:butt;stroke-linejoin:miter;stroke-opacity:1"
     d="m 56.013289,85.646244 c -0.64,0 -1.11914,0.47914 -1.11914,1.11914 l 0,53.601546 c 0,0.64 0.47914,1.11914 1.11914,1.11914 l 5.20117,0 c 0.64,0 1.11914,-0.47914 1.11914,-1.11914 l 0,-41.040996 18.80078,41.119126 c 0.24,0.48 0.6393,1.04101 1.2793,1.04101 l 5.83984,0 c 0.64,0 1.19922,-0.47914 1.19922,-1.11914 l 0,-53.601546 c 0,-0.64 -0.55922,-1.11914 -1.19922,-1.11914 l -5.19921,0 c -0.56001,0 -1.1211,0.47914 -1.1211,1.11914 l 0,38.320296 -17.11914,-38.320296 c -0.32,-0.72 -0.56117,-1.11914 -1.20117,-1.11914 l -7.59961,0 z m 44.853521,0 c -0.64001,0 -1.119151,0.55914 -1.119151,1.11914 l 0,47.281236 c 0,0.88 0.318911,1.52008 0.878911,2.08008 l 4.48047,4.47851 c 0.48,0.48 1.04008,0.88086 2.08008,0.88086 l 20.64062,0 c 0.88,0 1.52,-0.40086 2,-0.88086 l 4.48047,-4.47851 c 0.64,-0.64 0.87891,-1.2 0.87891,-2 l 0,-47.361316 c 0,-0.56 -0.47914,-1.11914 -1.11914,-1.11914 l -5.20117,0 c -0.64001,0 -1.11915,0.55914 -1.11915,1.11914 l 0,44.640606 c 0,0.16001 -0.0802,0.24032 -0.16015,0.32032 l -2,2 c -0.16,0.16 -0.48094,0.32031 -0.96094,0.32031 l -14.31836,0 c -0.32,0 -0.5607,-0.16031 -0.7207,-0.32031 l -2.08008,-2 -0.32031,-0.56055 0,-44.400376 c 0,-0.56 -0.47914,-1.11914 -1.11914,-1.11914 l -5.20117,0 z m 45.64648,0 c -0.64,0 -1.11914,0.47914 -1.11914,1.11914 l 0,53.601546 c 0,0.64 0.47914,1.11914 1.11914,1.11914 l 5.20117,0 c 0.64,0 1.11914,-0.47914 1.11914,-1.11914 l 0,-19.76172 6.48047,-8.23828 12.48047,28 c 0.24,0.56 0.79945,1.11914 1.43945,1.11914 l 5.83985,0 c 0.64,0 1.19898,-0.55914 0.95898,-1.11914 l -15.51953,-34.88086 14.56055,-18.720686 c 0.4,-0.48 -0.0807,-1.11914 -0.72071,-1.11914 l -6.63867,0 c -0.64,0 -1.04141,0.23883 -1.44141,0.79883 l -17.43945,22.880846 0,-22.560536 c 0,-0.64 -0.47914,-1.11914 -1.11914,-1.11914 l -5.20117,0 z m 41.1875,0 c -0.64,0 -1.11914,0.47914 -1.11914,1.11914 l 0,53.601546 c 0,0.64 0.47914,1.11914 1.11914,1.11914 l 29.04102,0 c 0.56,0 1.11914,-0.47914 1.11914,-1.11914 l 0,-5.20117 c 0,-0.64 -0.55914,-1.11914 -1.11914,-1.11914 l -22.72071,0 0,-16.80078 17.91992,0 c 0.64,0 1.1211,-0.47914 1.1211,-1.11914 l 0,-5.20117 c 0,-0.64 -0.4811,-1.11914 -1.1211,-1.11914 l -17.91992,0 0,-16.720696 22.72071,0 c 0.56,0 1.11914,-0.47914 1.11914,-1.11914 l 0,-5.20117 c 0,-0.64 -0.55914,-1.11914 -1.11914,-1.11914 l -29.04102,0 z m 45.22852,0 c -0.72002,0 -1.27993,0.15883 -1.91993,0.79883 l -4.55859,4.48047 c -0.64,0.64 -0.80078,1.12007 -0.80078,2.08007 l 0,41.041006 c 0,0.64 0.16086,1.36008 0.88086,2.08008 l 4.47851,4.47851 c 0.48,0.48 1.04,0.88086 2,0.88086 l 20.72071,0 c 0.96,0 1.52,-0.40086 2,-0.88086 l 4.48046,-4.47851 c 0.64,-0.64 0.87891,-1.44039 0.87891,-2.40039 l 0,-40.560536 c 0,-0.56 0.001,-1.44023 -0.79883,-2.24023 l -4.56054,-4.48047 c -0.72,-0.72 -1.36,-0.79883 -2,-0.79883 l -20.80078,0 z m 39.33398,0 c -0.64,0 -1.11914,0.47914 -1.11914,1.11914 l 0,53.601546 c 0,0.64 0.47914,1.11914 1.11914,1.11914 l 5.20117,0 c 0.64,0 1.11914,-0.47914 1.11914,-1.11914 l 0,-19.4414 19.04102,0 c 0.72,0 1.35812,-0.15891 2.07812,-0.87891 l 4.48047,-4.48047 c 0.56,-0.56 0.88086,-1.28 0.88086,-2 l 0,-20.480456 c 0,-0.8 -0.24086,-1.52015 -0.88086,-2.16015 l -4.48047,-4.48047 c -0.72,-0.72 -1.51812,-0.79883 -2.07812,-0.79883 l -25.36133,0 z m -36.61328,7.43945 15.43945,0 c 0.16,0 0.32055,2.4e-4 0.56055,0.24024 l 2,2 0,36.080056 c 0,0.16001 -0.0802,0.3204 -0.16016,0.4004 l -1.91992,1.91992 c -0.16,0.16 -0.40078,0.32031 -0.80078,0.32031 l -14.95899,0 c -0.24,0 -0.48062,-0.16031 -0.64062,-0.32031 l -1.91992,-1.91992 c -0.08,-0.08 -0.16016,-0.24038 -0.16016,-0.4004 l 0,-36.080056 2,-2 c 0.24,-0.24 0.40055,-0.24024 0.56055,-0.24024 z m 42.93359,0 16.08008,0 c 0.32,0 0.40055,1.6e-4 0.56055,0.16016 l 2.08008,2.08008 c 0.16,0.16 0.32031,0.4807 0.32031,0.7207 l 0,14.558576 -0.32031,0.56055 -2.08008,2 c -0.16,0.16 -0.32047,0.24031 -0.48047,0.32031 l -16.16016,0 0,-20.400376 z"
     id="text4155"
     inkscape:connector-curvature="0" />
  <path
     style="fill:url(#linearGradient5275-5);fill-opacity:1"
     d="m 92.479109,173.20901 0,35 175.000001,0 0,-35 -175.000001,0 z m 34.806651,7.03125 7.76953,0 c 0.24,0 0.51,0.0588 0.75,0.29883 l 1.71093,1.67968 c 0.18,0.18 0.29883,0.45125 0.29883,0.78125 l 0,3.20899 c 0,0.24 -0.17992,0.41992 -0.41992,0.41992 l -1.94922,0 c -0.24,0 -0.41992,-0.17992 -0.41992,-0.41992 l 0,-2.36914 -0.81055,-0.81055 -5.82031,0 c -0.09,0 -0.14969,0.0305 -0.17969,0.0605 l -0.75,0.77929 c -0.12,0.12 -0.15039,0.18079 -0.15039,0.30079 l 0,13.01953 c 0,0.09 0.0304,0.21007 0.15039,0.33008 l 0.75,0.75 c 0.06,0.06 0.18078,0.11914 0.30078,0.11914 l 5.51954,0 c 0.09,0 0.18023,-0.0592 0.24023,-0.11914 l 0.75,-0.75 0,-4.80079 -3.57031,0 c -0.24,0 -0.41992,-0.20992 -0.41992,-0.41992 l 0,-1.94922 c -1e-5,-0.24 0.17992,-0.41992 0.41992,-0.41992 l 5.93945,0 c 0.24,0 0.41992,0.17992 0.41992,0.41992 l 0,8.2793 c 0,0.15 -0.12008,0.36102 -0.33008,0.54102 l -1.67968,1.67968 c -0.21,0.21 -0.42,0.33008 -0.75,0.33008 l -7.74024,0 c -0.33,0 -0.5393,-0.0901 -0.77929,-0.33008 l -1.67969,-1.67968 c -0.3,-0.3 -0.33008,-0.39 -0.33008,-0.75 l 0,-15.41993 c 0,-0.33 0.0901,-0.51 0.33008,-0.75 l 1.67969,-1.71093 c 0.29999,-0.3 0.65999,-0.29883 0.75,-0.29883 z m 14.15624,0 1.95118,0 c 0.24,0 0.41992,0.20922 0.41992,0.44922 l 0,20.07031 c 0,0.24 -0.17992,0.41992 -0.41992,0.41992 l -1.95118,0 c -0.24,0 -0.41992,-0.17992 -0.41992,-0.41992 l 0,-20.07031 c 0,-0.24 0.17992,-0.44922 0.41992,-0.44922 z m 5.13282,0 12,0 c 0.24,0 0.41992,0.20922 0.41992,0.44922 l 0,1.94922 c 0,0.21 -0.17992,0.41992 -0.41992,0.41992 l -4.58985,0 0,17.76172 c 0,0.21 -0.17937,0.35937 -0.35937,0.35937 l -2.09961,0 c -0.18,0 -0.36133,-0.14937 -0.36133,-0.35937 l 0,-17.76172 -4.58984,0 c -0.24,0 -0.41992,-0.20992 -0.41992,-0.41992 l 0,-1.94922 c 0,-0.24 0.17992,-0.44922 0.41992,-0.44922 z m 15.19922,0 1.95117,0 c 0.24,0 0.41992,0.17992 0.41992,0.41992 l 0,9.24023 7.70898,0 0,-9.24023 c 0,-0.24 0.17993,-0.41992 0.41993,-0.41992 l 1.95117,0 c 0.24,0 0.41992,0.17992 0.41992,0.41992 l 0,20.09961 c 0,0.24 -0.17992,0.41992 -0.41992,0.41992 l -1.95117,0 c -0.24,0 -0.41993,-0.17992 -0.41993,-0.41992 l 0,-8.07031 -7.70898,0 0,8.07031 c 0,0.24 -0.17992,0.41992 -0.41992,0.41992 l -1.95117,0 c -0.24,0 -0.41993,-0.17992 -0.41993,-0.41992 l 0,-20.09961 c 0,-0.24 0.17993,-0.41992 0.41993,-0.41992 z m 16.55078,0 1.95117,0 c 0.24,0 0.41992,0.20992 0.41992,0.41992 l 0,16.64844 0.11914,0.21094 0.78125,0.75 c 0.06,0.06 0.14953,0.11914 0.26953,0.11914 l 5.36914,0 c 0.18,0 0.30133,-0.0592 0.36133,-0.11914 l 0.75,-0.75 c 0.03,-0.03 0.0586,-0.0592 0.0586,-0.11915 l 0,-16.74023 c 0,-0.21 0.17992,-0.41992 0.41992,-0.41992 l 1.95117,0 c 0.24,0 0.41992,0.20992 0.41992,0.41992 l 0,17.75977 c 0,0.3 -0.0901,0.51 -0.33008,0.75 l -1.67968,1.67968 c -0.18,0.18 -0.42,0.33008 -0.75,0.33008 l -7.74024,0 c -0.39,0 -0.60125,-0.15008 -0.78125,-0.33008 l -1.67969,-1.67968 c -0.21,-0.21 -0.33007,-0.45125 -0.33007,-0.78125 l 0,-17.72852 c 0,-0.21 0.17992,-0.41992 0.41992,-0.41992 z m 16.55468,0 9.51172,0 c 0.18,0 0.4493,-0.0312 0.7793,0.29883 l 1.67969,1.67968 c 0.36,0.39 0.33008,0.66125 0.33008,0.78125 l 0,5.49024 c 0,0.27 -0.0301,0.47929 -0.33008,0.7793 l -1.16992,1.16992 1.16992,1.19922 c 0.3,0.3 0.33008,0.48125 0.33008,0.78125 l 0,6 c 0,0.3 -0.15008,0.57 -0.33008,0.75 l -1.67969,1.67968 c -0.24,0.24 -0.4493,0.33008 -0.7793,0.33008 l -9.51172,0 c -0.24,0 -0.41992,-0.17992 -0.41992,-0.41992 l 0,-20.09961 c 0,-0.24 0.17992,-0.41992 0.41992,-0.41992 z m 21.67969,0 1.95117,0 c 0.24,0 0.41993,0.20922 0.41993,0.44922 l 0,20.07031 c 0,0.24 -0.17993,0.41992 -0.41993,0.41992 l -1.95117,0 c -0.24,0 -0.41992,-0.17992 -0.41992,-0.41992 l 0,-20.07031 c 0,-0.24 0.17992,-0.44922 0.41992,-0.44922 z m 8.3125,0 7.80078,0 c 0.24,0 0.48,0.0288 0.75,0.29883 l 1.71094,1.67968 c 0.3,0.3 0.29883,0.62985 0.29883,0.83985 l 0,15.21094 c 0,0.36 -0.0901,0.66039 -0.33008,0.90039 l -1.67969,1.67968 c -0.18,0.18 -0.39,0.33008 -0.75,0.33008 l -7.76953,0 c -0.36,0 -0.57,-0.15008 -0.75,-0.33008 l -1.67968,-1.67968 c -0.27,-0.27 -0.33008,-0.54125 -0.33008,-0.78125 l 0,-15.38868 c 0,-0.36 0.0588,-0.54125 0.29882,-0.78125 l 1.71094,-1.67968 c 0.24,-0.24 0.44875,-0.29883 0.71875,-0.29883 z m -27.62109,2.78906 0,6.26953 5.93945,0 c 0.06,0 0.18078,-0.0284 0.30078,-0.14844 l 0.75,-0.75 c 0.12,-0.12 0.15039,-0.15078 0.15039,-0.30078 l 0,-3.87109 c 0,-0.18 -0.0604,-0.23938 -0.15039,-0.35938 l -0.75,-0.77929 c -0.03,-0.03 -0.0897,-0.0605 -0.17968,-0.0605 l -6.06055,0 z m 28.64258,0 c -0.06,0 -0.12094,-1.6e-4 -0.21094,0.0898 l -0.75,0.75 0,13.53125 c 0,0.06 0.0306,0.11844 0.0606,0.14844 l 0.71875,0.72071 c 0.06,0.06 0.15023,0.11914 0.24023,0.11914 l 5.61133,0 c 0.15,0 0.23883,-0.0592 0.29883,-0.11914 l 0.7207,-0.72071 c 0.03,-0.03 0.0605,-0.0884 0.0605,-0.14844 l 0,-13.53125 -0.75,-0.75 c -0.09,-0.09 -0.15094,-0.0898 -0.21094,-0.0898 l -5.78906,0 z m -28.64258,9.06055 0,6.29883 6.11914,0 0.12109,-0.0899 0.75,-0.75 c 0.12,-0.12 0.15039,-0.21008 0.15039,-0.33008 l 0,-3.83984 c 0,-0.12 -0.0304,-0.29992 -0.15039,-0.41992 l -0.75,-0.75 -0.21093,-0.11914 -6.0293,0 z m 13.32812,5.8789 1.95118,0 c 0.24,0 0.41992,0.17993 0.41992,0.41993 l 0,2.43164 c 0,0.21 -0.20992,0.35937 -0.41992,0.35937 l -1.95118,0 c -0.21,0 -0.41992,-0.14937 -0.41992,-0.35937 l 0,-2.43164 c 0,-0.24 0.17992,-0.41993 0.41992,-0.41993 z"
     id="rect5269"
     inkscape:connector-curvature="0" />
  <path
     style="fill:url(#linearGradient5317-7);fill-opacity:1"
     d="m 69.772079,160.20983 10.10351,17.5 -10.10351,17.5 17.70703,0 0.0969,-27 16.610111,-8 -14.207031,0 z"
     id="path5295"
     inkscape:connector-curvature="0"
     sodipodi:nodetypes="cccccccc" />
  <path
     style="fill:url(#linearGradient5317-0-3);fill-opacity:1"
     d="m 255.77208,160.20983 16.68181,8 0.0252,27 17.70703,0 -10.10351,-17.5 10.10351,-17.5 -20.20703,0 z"
     id="path5295-8"
     inkscape:connector-curvature="0"
     sodipodi:nodetypes="cccccccc" />
  <path
     sodipodi:type="star"
     style="fill:url(#linearGradient4170);fill-opacity:1.0"
     id="path5389"
     sodipodi:sides="5"
     sodipodi:cx="179.97909"
     sodipodi:cy="53.666942"
     sodipodi:r1="18.397423"
     sodipodi:r2="9.1987114"
     sodipodi:arg1="-1.5707963"
     sodipodi:arg2="-0.9424778"
     inkscape:flatsided="false"
     inkscape:rounded="0.05"
     inkscape:randomized="0"
     d="m 179.9791,35.26952 c 0.61085,0 4.91267,10.596457 5.40686,10.955509 0.49419,0.359051 11.90136,1.17584 12.09012,1.756798 0.18877,0.580957 -8.55973,7.946716 -8.74849,8.527674 -0.18876,0.580957 2.55943,11.682218 2.06524,12.04127 -0.49419,0.359051 -10.20288,-5.685117 -10.81373,-5.685117 -0.61086,0 -10.31955,6.044167 -10.81374,5.685116 -0.49419,-0.359051 2.25401,-11.460312 2.06524,-12.041269 -0.18876,-0.580958 -8.93726,-7.946718 -8.74849,-8.527675 0.18876,-0.580957 11.59593,-1.397746 12.09012,-1.756797 0.49419,-0.359052 4.79601,-10.955509 5.40687,-10.955509 z"
     inkscape:transform-center-y="-1.7490863" />
  <path
     sodipodi:type="star"
     style="fill:url(#linearGradient4174);fill-opacity:1.0"
     id="path5389-9"
     sodipodi:sides="5"
     sodipodi:cx="214.97909"
     sodipodi:cy="57.9239"
     sodipodi:r1="13.141016"
     sodipodi:r2="6.570508"
     sodipodi:arg1="-1.5707963"
     sodipodi:arg2="-0.9424778"
     inkscape:flatsided="false"
     inkscape:rounded="0.05"
     inkscape:randomized="0"
     d="m 214.9791,44.782885 c 0.43632,0 3.50905,7.568898 3.86204,7.825363 0.353,0.256465 8.50097,0.839886 8.6358,1.254856 0.13484,0.414969 -6.11409,5.676226 -6.24892,6.091195 -0.13483,0.41497 1.82816,8.344442 1.47517,8.600907 -0.35299,0.256465 -7.28777,-4.060797 -7.72409,-4.060797 -0.43633,0 -7.37111,4.317262 -7.7241,4.060797 -0.35299,-0.256466 1.61,-8.185937 1.47517,-8.600907 -0.13483,-0.414969 -6.38376,-5.676226 -6.24892,-6.091196 0.13483,-0.41497 8.2828,-0.99839 8.6358,-1.254855 0.35299,-0.256465 3.42572,-7.825363 3.86205,-7.825363 z"
     inkscape:transform-center-y="-1.2493686" />
  <path
     sodipodi:type="star"
     style="fill:url(#linearGradient4172);fill-opacity:1.0"
     id="path5389-9-4"
     sodipodi:sides="5"
     sodipodi:cx="144.97909"
     sodipodi:cy="57.9239"
     sodipodi:r1="13.141016"
     sodipodi:r2="6.570508"
     sodipodi:arg1="-1.5707963"
     sodipodi:arg2="-0.9424778"
     inkscape:flatsided="false"
     inkscape:rounded="0.05"
     inkscape:randomized="0"
     d="m 144.9791,44.782885 c 0.43632,0 3.50905,7.568898 3.86204,7.825363 0.353,0.256465 8.50097,0.839886 8.6358,1.254856 0.13484,0.414969 -6.11409,5.676226 -6.24892,6.091195 -0.13483,0.41497 1.82816,8.344442 1.47517,8.600907 -0.35299,0.256465 -7.28777,-4.060797 -7.72409,-4.060797 -0.43633,0 -7.37111,4.317262 -7.7241,4.060797 -0.35299,-0.256466 1.61,-8.185937 1.47517,-8.600907 -0.13483,-0.414969 -6.38376,-5.676226 -6.24892,-6.091196 0.13483,-0.41497 8.2828,-0.99839 8.6358,-1.254855 0.35299,-0.256465 3.42572,-7.825363 3.86205,-7.825363 z"
     inkscape:transform-center-y="-1.2493686" />
</svg>
