<?xml version="1.0" encoding="UTF-8" standalone="no"?>
<!-- Created with Inkscape (http://www.inkscape.org/) -->

<svg
   xmlns:osb="http://www.openswatchbook.org/uri/2009/osb"
   xmlns:dc="http://purl.org/dc/elements/1.1/"
   xmlns:cc="http://creativecommons.org/ns#"
   xmlns:rdf="http://www.w3.org/1999/02/22-rdf-syntax-ns#"
   xmlns:svg="http://www.w3.org/2000/svg"
   xmlns="http://www.w3.org/2000/svg"
   xmlns:xlink="http://www.w3.org/1999/xlink"
   xmlns:sodipodi="http://sodipodi.sourceforge.net/DTD/sodipodi-0.dtd"
   xmlns:inkscape="http://www.inkscape.org/namespaces/inkscape"
   width="744.09448"
   height="1052.3622"
   id="svg4731"
   version="1.1"
   inkscape:version="0.91 r13725"
   viewBox="0 0 744.09448 1052.3622"
   sodipodi:docname="logo.svg">
  <defs
     id="defs4733">
    <linearGradient
       id="linearGradient5533"
       osb:paint="solid">
      <stop
         style="stop-color:#000000;stop-opacity:1;"
         offset="0"
         id="stop5535" />
    </linearGradient>
    <linearGradient
       id="linearGradient5527"
       osb:paint="solid">
      <stop
         style="stop-color:#000000;stop-opacity:1;"
         offset="0"
         id="stop5529" />
    </linearGradient>
    <linearGradient
       id="linearGradient5431"
       osb:paint="solid">
      <stop
         style="stop-color:#ffffff;stop-opacity:1;"
         offset="0"
         id="stop5433" />
    </linearGradient>
    <linearGradient
       id="linearGradient5423"
       osb:paint="solid">
      <stop
         style="stop-color:#ffffff;stop-opacity:1;"
         offset="0"
         id="stop5425" />
    </linearGradient>
    <linearGradient
       id="linearGradient5313"
       osb:paint="solid">
      <stop
         style="stop-color:#ffffff;stop-opacity:1;"
         offset="0"
         id="stop5315" />
    </linearGradient>
    <linearGradient
       id="linearGradient5271"
       osb:paint="solid">
      <stop
         style="stop-color:#ffffff;stop-opacity:1;"
         offset="0"
         id="stop5273" />
    </linearGradient>
    <linearGradient
       id="linearGradient5255"
       osb:paint="solid">
      <stop
         style="stop-color:#000000;stop-opacity:1;"
         offset="0"
         id="stop5257" />
    </linearGradient>
    <linearGradient
       id="linearGradient4159"
       osb:paint="solid">
      <stop
         style="stop-color:#000000;stop-opacity:1;"
         offset="0"
         id="stop4161" />
    </linearGradient>
    <linearGradient
       id="linearGradient5342"
       osb:paint="solid">
      <stop
         style="stop-color:#ff6b6b;stop-opacity:0.94117647;"
         offset="0"
         id="stop5344" />
    </linearGradient>
    <linearGradient
       id="linearGradient5334"
       osb:paint="solid">
      <stop
         style="stop-color:#00d2d3;stop-opacity:1;"
         offset="0"
         id="stop5336" />
    </linearGradient>
    <linearGradient
       id="linearGradient5307"
       osb:paint="solid">
      <stop
         style="stop-color:#1dd1a1;stop-opacity:1;"
         offset="0"
         id="stop5309" />
    </linearGradient>
    <linearGradient
       id="linearGradient5301"
       osb:paint="solid">
      <stop
         style="stop-color:#feca57;stop-opacity:1;"
         offset="0"
         id="stop5303" />
    </linearGradient>
    <linearGradient
       id="linearGradient5295"
       osb:paint="solid">
      <stop
         style="stop-color:#c8d6e5;stop-opacity:1;"
         offset="0"
         id="stop5297" />
    </linearGradient>
    <linearGradient
       id="linearGradient5289"
       osb:paint="solid">
      <stop
         style="stop-color:#222f3e;stop-opacity:1;"
         offset="0"
         id="stop5291" />
    </linearGradient>
    <linearGradient
       inkscape:collect="always"
       xlink:href="#linearGradient5289"
       id="linearGradient5293"
       x1="940"
       y1="720.93362"
       x2="1402.8571"
       y2="720.93362"
       gradientUnits="userSpaceOnUse"
       gradientTransform="matrix(1.728395,0,0,1.6935484,-1624.6913,-468.57382)" />
    <linearGradient
       inkscape:collect="always"
       xlink:href="#linearGradient5301"
       id="linearGradient4176"
       x1="114.82375"
       y1="752.36218"
       x2="685.17627"
       y2="752.36218"
       gradientUnits="userSpaceOnUse" />
    <linearGradient
       y2="752.36218"
       x2="685.17627"
       y1="752.36218"
       x1="114.82375"
       gradientUnits="userSpaceOnUse"
       id="linearGradient4184"
       xlink:href="#linearGradient5301"
       inkscape:collect="always" />
    <linearGradient
       inkscape:collect="always"
       xlink:href="#linearGradient5295"
       id="linearGradient5234"
       gradientUnits="userSpaceOnUse"
       gradientTransform="translate(164.09107,4.999287)"
       x1="114.82375"
       y1="752.36218"
       x2="685.17627"
       y2="752.36218" />
    <linearGradient
       inkscape:collect="always"
       xlink:href="#linearGradient5307"
       id="linearGradient5275"
       x1="242.14285"
       y1="613.79071"
       x2="441.42856"
       y2="613.79071"
       gradientUnits="userSpaceOnUse"
       gradientTransform="matrix(0.87813617,0,0,0.97999994,99.865354,227.99023)" />
    <linearGradient
       inkscape:collect="always"
       xlink:href="#linearGradient5307"
       id="linearGradient5317"
       x1="77.952011"
       y1="813.1687"
       x2="240.61998"
       y2="813.1687"
       gradientUnits="userSpaceOnUse"
       gradientTransform="matrix(0.24844368,0,0,0.24844368,270.42632,614.47856)" />
    <linearGradient
       inkscape:collect="always"
       xlink:href="#linearGradient5307"
       id="linearGradient5317-0"
       x1="77.952011"
       y1="813.1687"
       x2="240.61998"
       y2="813.1687"
       gradientUnits="userSpaceOnUse"
       gradientTransform="matrix(0.24844368,0,0,0.24844368,450.42632,614.47856)" />
    <linearGradient
       inkscape:collect="always"
       xlink:href="#linearGradient5289"
       id="linearGradient5435-4"
       x1="123.6266"
       y1="632.13873"
       x2="186.49026"
       y2="632.13873"
       gradientUnits="userSpaceOnUse"
       gradientTransform="matrix(5.5676046,0,0,3.5931944,336.69602,-1504.388)" />
    <linearGradient
       inkscape:collect="always"
       xlink:href="#linearGradient5295"
       id="linearGradient5293-2"
       x1="940"
       y1="720.93359"
       x2="1402.8571"
       y2="720.93359"
       gradientUnits="userSpaceOnUse"
       gradientTransform="matrix(1.728395,0,0,1.6935484,-824.69129,-468.5738)" />
    <linearGradient
       inkscape:collect="always"
       xlink:href="#linearGradient5295"
       id="linearGradient5537"
       x1="123.1266"
       y1="632.13873"
       x2="186.99026"
       y2="632.13873"
       gradientUnits="userSpaceOnUse" />
  </defs>
  <sodipodi:namedview
     id="base"
     pagecolor="#ffffff"
     bordercolor="#ffffff"
     borderopacity="0.0"
     inkscape:pageopacity="0.0"
     inkscape:pageshadow="0"
     inkscape:zoom="0.7"
     inkscape:cx="547.32572"
     inkscape:cy="274.65062"
     inkscape:document-units="px"
     inkscape:current-layer="layer1"
     showgrid="false"
     inkscape:window-width="1920"
     inkscape:window-height="1020"
     inkscape:window-x="1920"
     inkscape:window-y="456"
     inkscape:window-maximized="1"
     inkscape:snap-bbox="true"
     inkscape:snap-bbox-midpoints="true"
     inkscape:bbox-nodes="true" />
  <metadata
     id="metadata4736">
    <rdf:RDF>
      <cc:Work
         rdf:about="">
        <dc:format>image/svg+xml</dc:format>
        <dc:type
           rdf:resource="http://purl.org/dc/dcmitype/StillImage" />
        <dc:title />
      </cc:Work>
    </rdf:RDF>
  </metadata>
  <g
     inkscape:label="Layer 1"
     inkscape:groupmode="layer"
     id="layer1">
    <rect
       style="fill:url(#linearGradient5293);fill-opacity:1"
       id="rect5287"
       width="800"
       height="600"
       x="0"
       y="452.36218" />
    <path
       sodipodi:type="star"
       style="fill:none;fill-opacity:1;stroke:url(#linearGradient5537);stroke-opacity:1;stroke-width:1.78860911;stroke-miterlimit:4;stroke-dasharray:none"
       id="path5429"
       sodipodi:sides="6"
       sodipodi:cx="155.05843"
       sodipodi:cy="632.13873"
       sodipodi:r1="34.787987"
       sodipodi:r2="30.127281"
       sodipodi:arg1="0.52359878"
       sodipodi:arg2="1.0471976"
       inkscape:flatsided="true"
       inkscape:rounded="0.1"
       inkscape:randomized="0"
       d="m 185.18571,649.53273 c -1.7394,3.01272 -26.64849,17.39399 -30.12728,17.39399 -3.4788,0 -28.38789,-14.38127 -30.12728,-17.39399 -1.7394,-3.01273 -1.7394,-31.77526 0,-34.78799 1.7394,-3.01273 26.64848,-17.39399 30.12728,-17.39399 3.47879,0 28.38788,14.38126 30.12728,17.39399 1.7394,3.01273 1.7394,31.77526 0,34.78799 z"
       transform="matrix(5.5676046,0,0,3.5931944,-463.30401,-1504.388)" />
    <path
       style="font-style:normal;font-weight:normal;font-size:40px;line-height:125%;font-family:sans-serif;letter-spacing:0px;word-spacing:0px;fill:url(#linearGradient5234);fill-opacity:1;stroke:none;stroke-width:1px;stroke-linecap:butt;stroke-linejoin:miter;stroke-opacity:1"
       d="m 286.03027,729.44226 2.59961,0.69726 c -0.24014,-0.44826 -0.49522,-0.69726 -0.99414,-0.69726 l -1.60547,0 z m 21.04493,0 c -0.56001,0 -1.1211,0.47914 -1.1211,1.11914 l 0,0.0781 7.52149,2.01563 0,-2.07031 -4.26368,-1.14258 -2.13671,0 z m 45.8125,0 c -0.61412,0 -1.06872,0.51626 -1.10547,1.05273 l 7.42578,1.99024 0,-1.92383 c 0,-0.0526 -0.023,-0.10212 -0.0312,-0.1543 l -3.59961,-0.96484 -2.68945,0 z m 17.64648,0 c -0.64,0 -1.11914,0.47914 -1.11914,1.11914 l 0,0.51758 7.43945,1.99414 0,-2.07031 -5.82226,-1.56055 -0.49805,0 z m 25.20117,0 c -0.32106,0 -0.58193,0.0605 -0.8125,0.19141 l 7.35938,1.9707 0.8125,-1.04297 c 0.2267,-0.27205 0.16459,-0.59112 -0.043,-0.82031 l -1.11328,-0.29883 -6.20313,0 z m 15.98633,0 c -0.32629,0 -0.60789,0.12686 -0.80859,0.33398 l 26.51757,7.10547 3.33204,0 c 0.48941,0 0.97816,-0.36706 1.09374,-0.88672 l -24.45898,-6.55273 -5.67578,0 z m 13.40234,0 16.75782,4.49023 0,-2.07031 -9.0293,-2.41992 -7.72852,0 z m 15.45508,0 0.78711,0.21094 c -0.18347,-0.12371 -0.38823,-0.21094 -0.60351,-0.21094 l -0.1836,0 z m 16.3711,0 c -0.23197,0 -0.44363,0.0284 -0.6504,0.0723 l 28.81055,7.71876 0,-0.27149 c 0,-0.49144 -3.3e-4,-1.22937 -0.54101,-1.94336 l -20.81055,-5.57617 -6.80859,0 z m 14.53515,0 10.24609,2.74609 -1.98046,-1.94531 c -0.72,-0.72 -1.36,-0.80078 -2,-0.80078 l -6.26563,0 z m 30.91016,0 26.66601,7.14453 c -0.0552,-0.68135 -0.29822,-1.30603 -0.85742,-1.86523 l -0.59375,-0.59375 -17.48437,-4.68555 -7.73047,0 z m 15.45703,0 6.92969,1.85742 -1.05664,-1.05664 c -0.72,-0.72 -1.52008,-0.80078 -2.08008,-0.80078 l -3.79297,0 z m -193.12305,0.0176 c -0.55782,0.0841 -0.96094,0.58962 -0.96094,1.10156 l 0,0.71094 7.43946,1.99414 0,-2.07031 -6.47852,-1.73633 z m 170.86524,0.23047 c -0.2582,0.20126 -0.42969,0.50177 -0.42969,0.87109 l 0,1.08398 19.54297,5.23633 3.97656,0 c 0.32,0 0.40055,1.6e-4 0.56055,0.16016 l 1.4414,1.44141 8.39844,2.25 0,-2.07032 -33.49023,-8.97265 z m -216.28321,0.0215 c -0.24009,0.20194 -0.39648,0.49516 -0.39648,0.84961 l 0,1.11523 11.83398,3.17188 -1.05078,-2.35352 -10.38672,-2.7832 z m 174.91797,1.31836 -1.65625,1.62695 15.76953,4.22461 6.76758,0 c 0.16,0 0.32055,2.4e-4 0.56055,0.24024 l 2,2 0,0.25976 7.43945,1.99219 0,-2.07031 -30.88086,-8.27344 z m -60.7539,0.28516 -1.3086,1.71875 7.45117,1.99804 1.33204,-1.71484 -7.47461,-2.00195 z m 17.12695,0.44921 0,2.07032 11.375,3.04687 7.72656,0 -19.10156,-5.11719 z m -58.83399,0.79883 0,2.07032 7.43946,1.99414 0,-2.07032 -7.43946,-1.99414 z m -45.81445,0.14649 0,2.07031 7.52149,2.01563 0,-2.07032 -7.52149,-2.01562 z m 63.46094,0.43945 0,2.07031 7.43945,1.99414 0,-2.07031 -7.43945,-1.99414 z m -45.64649,0.19336 0,2.07031 7.43946,1.99414 0,-2.07031 -7.43946,-1.99414 z m 171.39649,0.375 0,2.07031 7.43945,1.99219 0,-0.89844 4.37305,0 -11.8125,-3.16406 z m -216.25,0.0312 0,2.07031 13.9375,3.73438 -1.05078,-2.35157 -12.88672,-3.45312 z m 172.0039,0.5332 -0.44726,0.43946 c -0.44169,0.44169 -0.6467,0.81674 -0.73633,1.3164 l 8.25,2.20899 1.125,-1.125 c 0.24,-0.24 0.40055,-0.24024 0.56055,-0.24024 l 0.94531,0 -9.69727,-2.59961 z m -60.0625,0.47071 -1.31054,1.7207 7.40625,1.98437 1.33398,-1.71289 -7.42969,-1.99218 z m 19.7461,1.15234 0,2.07031 7.43945,1.99219 0,-2.07031 -7.43945,-1.99219 z m -58.83399,0.79883 0,2.07031 7.43946,1.99414 0,-2.07031 -7.43946,-1.99414 z m -45.81445,0.14648 0,2.07032 7.52149,2.01562 0,-2.07031 -7.52149,-2.01563 z m 63.46094,0.44141 0,2.07031 7.43945,1.99414 0,-2.07031 -7.43945,-1.99414 z m -45.64649,0.19141 0,2.07031 7.43946,1.99414 0,-2.07031 -7.43946,-1.99414 z m 171.39649,0.375 0,2.07031 7.43945,1.99219 0,-2.07032 -7.43945,-1.99218 z m -216.25,0.0312 0,2.07032 16.03906,4.29687 -1.05078,-2.35156 -14.98828,-4.01563 z m 170.75586,0.20118 0,2.07031 7.43945,1.99414 0,-2.07227 -7.43945,-1.99218 z m -61.43555,0.10156 -1.31055,1.71875 7.36329,1.97461 1.33203,-1.71484 -7.38477,-1.97852 z m 22.36719,1.85352 0,2.07031 7.43945,1.99219 0,-2.07032 -7.43945,-1.99218 z m 111.04297,0.76562 0,2.07031 7.43945,1.99414 0,-2.07031 -7.43945,-1.99414 z m -169.87696,0.0332 0,2.07032 7.43946,1.99414 0,-2.07032 -7.43946,-1.99414 z m -45.81445,0.14844 0,2.07031 7.52149,2.01563 0,-2.07031 -7.52149,-2.01563 z m 63.46094,0.43945 0,2.07032 7.43945,1.99414 0,-2.07032 -7.43945,-1.99414 z m 108.25586,0.0195 0,2.07032 7.43945,1.99414 0,-2.07227 -7.43945,-1.99219 z m -153.90235,0.17188 0,2.07031 7.43946,1.99414 0,-2.07031 -7.43946,-1.99414 z m 61.84375,0.008 -1.31054,1.71875 7.32031,1.96289 1.33203,-1.71484 -7.3418,-1.9668 z m 109.55274,0.36719 0,2.07031 7.43945,1.99219 0,-2.07031 -7.43945,-1.99219 z m -216.25,0.0312 0,2.07031 7.43945,1.99219 0,-2.07031 -7.43945,-1.99219 z m 170.75586,0.20117 0,2.07031 7.43945,1.99415 0,-2.07032 -7.43945,-1.99414 z m -162.84766,1.91797 1.08008,2.35938 9.15039,2.45117 -1.05078,-2.35156 -9.17969,-2.45899 z m 123.7793,0.0371 0,2.07031 7.43945,1.99414 0,-2.07031 -7.43945,-1.99414 z m 111.04297,0.76562 0,2.07032 7.43945,1.99414 0,-2.07031 -7.43945,-1.99415 z m -169.87696,0.0332 0,2.07226 7.43946,1.99219 0,-2.07031 -7.43946,-1.99414 z m 31.22266,0.0859 -1.31055,1.71875 7.27539,1.94921 1.33204,-1.71289 -7.29688,-1.95507 z m -77.03711,0.0625 0,2.07031 7.52149,2.01562 0,-2.07031 -7.52149,-2.01562 z m 63.46094,0.43945 0,2.07031 7.43945,1.99414 0,-2.07031 -7.43945,-1.99414 z m 108.25586,0.0195 0,2.07227 7.43945,1.99218 0,-2.07031 -7.43945,-1.99414 z m -153.90235,0.17383 0,2.07031 7.43946,1.99414 0,-2.07031 -7.43946,-1.99414 z m 171.39649,0.37304 0,2.07032 7.43945,1.99414 0,-2.07227 -7.43945,-1.99219 z m -216.25,0.0313 0,2.07031 7.43945,1.99414 0,-2.07031 -7.43945,-1.99414 z m 170.75586,0.20117 0,2.07031 7.43945,1.99414 0,-2.07031 -7.43945,-1.99414 z m -39.06836,1.95703 0,2.07031 7.43945,1.99219 0,-2.07031 -7.43945,-1.99219 z m -30.23242,0.17969 -1.31055,1.7207 11.23437,3.00976 -1.04492,-2.35156 -8.8789,-2.3789 z m -91.38868,0.35937 1.07813,2.35938 9.0957,2.4375 -1.05078,-2.35157 -9.12305,-2.44531 z m 232.66407,0.22461 0,2.07031 7.43945,1.99414 0,-2.07031 -7.43945,-1.99414 z m -169.87696,0.0352 0,2.07031 7.43946,1.99219 0,-2.07032 -7.43946,-1.99218 z m -45.81445,0.14648 0,2.07031 7.52149,2.01563 0,-2.07031 -7.52149,-2.01563 z m 63.46094,0.43945 0,2.07227 22.97266,6.1543 -1.04688,-2.35157 -13.5918,-3.64062 -0.89453,1.17383 0,-1.41407 -7.43945,-1.99414 z m 108.25586,0.0215 0,2.07031 7.43945,1.99219 0,-2.07031 -7.43945,-1.99219 z m -153.90235,0.17187 0,2.07032 7.43946,1.99414 0,-2.07032 -7.43946,-1.99414 z m 171.39649,0.37305 0,2.07227 7.43945,1.99218 0,-2.07031 -7.43945,-1.99414 z m -216.25,0.0312 0,2.07227 7.43945,1.99218 0,-2.07031 -7.43945,-1.99414 z m 170.75586,0.20117 0,2.07031 7.43945,1.99414 0,-2.07031 -7.43945,-1.99414 z m -39.06836,1.95703 0,2.07032 24.26758,6.50195 1.09179,0 c 0.64,0 1.1211,-0.47914 1.1211,-1.11914 l 0,-0.35742 -26.48047,-7.09571 z m 111.04297,0.76368 0,1.16796 -0.32031,0.56055 -0.20899,0.20117 7.96875,2.13672 0,-2.07226 -7.43945,-1.99414 z m -169.87696,0.0371 0,2.07032 7.43946,1.99218 0,-2.07031 -7.43946,-1.99219 z m -45.81445,0.14454 0,2.07031 7.52149,2.01562 0,-2.07031 -7.52149,-2.01562 z m -14.81445,0.17187 1.07812,2.36133 9.04102,2.42187 -1.05274,-2.35351 -9.0664,-2.42969 z m 131.41992,0.0156 14.52344,3.89062 0,-2.07031 -6.79688,-1.82031 -7.72656,0 z m -53.14453,0.2539 0,2.07031 11.65039,3.1211 1.3457,-1.71094 -12.99609,-3.48047 z m 108.25586,0.0195 0,2.07032 7.43945,1.99218 0,-2.07031 -7.43945,-1.99219 z m -153.90235,0.17188 0,2.07031 7.43946,1.99414 0,-2.07031 -7.43946,-1.99414 z m 171.39649,0.375 0,2.07031 28.28711,7.57813 c 0.0909,-0.0754 0.18016,-0.13525 0.27344,-0.22852 l 1.39453,-1.39453 -19.28125,-5.16602 -3.23438,0 0,-0.86718 -7.43945,-1.99219 z m -216.25,0.0312 0,2.07031 7.43945,1.99219 0,-2.07031 -7.43945,-1.99219 z m 170.75586,0.20117 0,2.07031 7.43945,1.99219 0,-2.07031 -7.43945,-1.99219 z m -39.06836,1.95508 0,2.07031 8.81445,2.36133 7.72656,0 -16.54101,-4.43164 z m 108.82812,0.17187 -0.18554,0.17969 c -0.16,0.16 -0.32047,0.24031 -0.48047,0.32031 l -5.19922,0 13.18555,3.53321 1.45312,-1.45313 c 0.0585,-0.0585 0.10305,-0.12564 0.15625,-0.1875 l -8.92969,-2.39258 z m -167.66211,0.62891 0,2.07031 7.43946,1.99219 0,-2.07031 -7.43946,-1.99219 z m -45.81445,0.14453 0,2.07227 7.52149,2.01562 0,-2.07226 -7.52149,-2.01563 z m 78.10156,0.22266 1.04688,2.35156 9.37695,2.51172 -1.04687,-2.34961 -9.37696,-2.51367 z m -14.64062,0.21875 0,2.07031 8.95898,2.40234 1.34571,-1.71093 -10.30469,-2.76172 z m 108.25586,0.0195 0,2.07031 7.43945,1.99219 0,-2.07031 -7.43945,-1.99219 z m -153.90235,0.17187 0,2.07032 7.43946,1.99414 0,-2.07032 -7.43946,-1.99414 z m -30.4707,0.11914 1.07813,2.35938 8.98437,2.40625 -1.05078,-2.35156 -9.01172,-2.41407 z m 201.86719,0.25586 0,2.07032 15.25781,4.08789 7.72656,0 -22.98437,-6.15821 z m -216.25,0.0312 0,2.07032 7.43945,1.99218 0,-2.07031 -7.43945,-1.99219 z m 170.75586,0.20118 0,2.07031 7.43945,1.99414 0,-2.07031 -7.43945,-1.99414 z m -39.06836,1.95507 0,2.07032 7.43945,1.99414 0,-2.07227 -7.43945,-1.99219 z m -58.83399,0.80078 0,2.07032 7.43946,1.99218 0,-2.07031 -7.43946,-1.99219 z m -45.81445,0.14649 0,2.07031 7.52149,2.01563 0,-2.07032 -7.52149,-2.01562 z m 63.46094,0.43945 0,2.07031 7.43945,1.99414 0,-1.80078 0.17578,-0.22265 -7.61523,-2.04102 z m 108.25586,0.0195 0,2.07032 7.43945,1.99414 0,-2.07032 -7.43945,-1.99414 z m -153.90235,0.17188 0,2.07226 7.43946,1.99414 0,-2.07226 -7.43946,-1.99414 z m 62.38282,0.1543 1.04883,2.3496 9.37109,2.51172 -1.04492,-2.34961 -9.375,-2.51171 z m 109.01367,0.2207 0,2.07031 7.43945,1.99219 0,-2.04492 0.0918,0 -7.53125,-2.01758 z m -216.25,0.0312 0,2.07031 7.43945,1.99219 0,-2.07031 -7.43945,-1.99219 z m 170.75586,0.20312 0,2.07032 7.43945,1.99218 0,-2.07031 -7.43945,-1.99219 z m -154.2168,0.0879 1.08008,2.35938 8.92578,2.39258 -1.05078,-2.35352 -8.95508,-2.39844 z m 115.14844,1.86524 0,2.07031 7.43945,1.99414 0,-2.07031 -7.43945,-1.99414 z m -58.83399,0.80078 0,2.07031 7.43946,1.99219 0,-2.07031 -7.43946,-1.99219 z m -45.81445,0.14648 0,2.07032 7.52149,2.01562 0,-2.07031 -7.52149,-2.01563 z m 63.46094,0.43946 0,2.07031 7.43945,1.99414 0,-2.07031 -7.43945,-1.99414 z m 108.25586,0.0215 0,2.07031 7.43945,1.99219 0,-2.07031 -7.43945,-1.99219 z m -153.90235,0.17188 0,2.07031 7.43946,1.99414 0,-2.07031 -7.43946,-1.99414 z m 171.39649,0.37304 0,2.07032 7.43945,1.99414 0,-2.07032 -7.43945,-1.99414 z m -216.25,0.0312 0,2.07032 7.43945,1.99414 0,-2.07032 -7.43945,-1.99414 z m 170.75586,0.20313 0,2.07031 7.43945,1.99219 0,-2.07031 -7.43945,-1.99219 z m -61.42383,0.10547 1.04883,2.35156 9.36719,2.50977 -1.04493,-2.34961 -9.37109,-2.51172 z m -90.63477,0.56054 1.07813,2.35938 14.78516,3.96094 0,-2.07032 -15.86329,-4.25 z m 112.99024,1.28907 0,2.07031 7.43945,1.99414 0,-2.07031 -7.43945,-1.99414 z m -58.83399,0.79882 0,2.07227 7.43946,1.99219 0,-2.07227 -7.43946,-1.99219 z m 17.64649,0.5879 0,2.07031 7.43945,1.99219 0,-2.07032 -7.43945,-1.99218 z m 108.25586,0.0195 0,2.07031 7.43945,1.99219 0,-2.07032 -7.43945,-1.99218 z m -153.90235,0.17187 0,2.07031 7.43946,1.99414 0,-2.07031 -7.43946,-1.99414 z m 171.39649,0.375 0,2.07031 7.43945,1.99219 0,-2.07031 -7.43945,-1.99219 z m -216.25,0.0312 0,2.07031 7.43945,1.99219 0,-2.07031 -7.43945,-1.99219 z m 170.75586,0.20117 0,2.07032 7.45898,1.99804 c -0.005,-0.0294 -0.0195,-0.0561 -0.0195,-0.0859 l 0,-1.99023 -7.43945,-1.99219 z m -59.32813,0.66797 1.04883,2.34961 9.36328,2.50977 -1.04492,-2.34961 -9.36719,-2.50977 z m -90.57226,0.57617 1.07812,2.35938 12.62696,3.38281 0,-2.07031 -13.70508,-3.67188 z m 110.83203,0.71094 0,2.07031 7.43945,1.99414 0,-2.07031 -7.43945,-1.99414 z m -58.83399,0.80078 0,1.22656 c 0,0.16001 -0.0802,0.24032 -0.16015,0.32032 l -0.37891,0.3789 7.96875,2.13477 c 0.001,-0.0394 0.01,-0.0727 0.01,-0.11328 l 0,-1.95508 -7.43946,-1.99219 z m 17.64649,0.58594 0,2.07031 7.43945,1.99414 0,-2.07226 -7.43945,-1.99219 z m 108.25586,0.0195 0,0.62109 c 0,0.16001 -0.0802,0.3204 -0.16016,0.4004 l -0.79297,0.79296 8.25,2.21094 c 0.09,-0.33728 0.14258,-0.69385 0.14258,-1.08398 l 0,-0.94922 -7.43945,-1.99219 z m -153.90235,0.17188 0,2.07031 29.64844,7.94531 c 0.15615,-0.11242 0.30087,-0.23641 0.43164,-0.36719 l 1.25196,-1.25195 -19.80274,-5.30664 -0.96875,0 c -0.32,0 -0.5607,-0.16031 -0.7207,-0.32031 l -0.19141,-0.1836 -9.64844,-2.58593 z m 171.39649,0.375 0,2.07031 7.43945,1.99219 0,-2.07032 -7.43945,-1.99218 z m -216.25,0.0312 0,2.07031 7.43945,1.99414 0,-2.07227 -7.43945,-1.99218 z m 170.75586,0.20117 0,2.07031 28.86328,7.73438 c 0.50946,-0.15042 0.88686,-0.43374 1.2168,-0.76368 l 0.77343,-0.77343 -30.85351,-8.26758 z m -57.23047,1.23047 1.04687,2.34961 9.36133,2.50781 -1.04687,-2.34961 -9.36133,-2.50781 z m -90.51172,0.59375 1.07813,2.35937 10.46875,2.80469 0,-2.07031 -11.54688,-3.09375 z m 108.67383,0.13086 0,2.07031 22.00586,5.89648 7.72656,0 -29.73242,-7.96679 z m -61.00977,0.21679 c -0.16334,0.15643 -0.47384,0.31055 -0.94336,0.31055 l -5.625,0 13.71094,3.67383 1.59375,-1.59375 c 0.0139,-0.0139 0.0216,-0.0272 0.0352,-0.041 l -8.77149,-2.34961 z m 70.70508,0.31055 21.58399,5.7832 0,-2.07031 -13.85743,-3.71289 -7.72656,0 z m 15.45313,0 6.13086,1.64258 0,-0.52344 c 0,-0.64 -0.55914,-1.11914 -1.11914,-1.11914 l -5.01172,0 z m 30.91211,0 15.49609,4.15234 1.63281,-1.63281 -9.40039,-2.51953 -7.72851,0 z m -97.24805,0.85937 0,2.07032 7.43945,1.99414 0,-2.07031 -7.43945,-1.99415 z m -45.43164,0.25 c 0.15014,0.35983 0.37295,0.67765 0.66601,0.97071 l 1.7461,1.74609 13.48633,3.61328 7.72656,0 -23.625,-6.33008 z m 171.18164,0.31641 0,2.07031 7.43945,1.99219 0,-2.07031 -7.43945,-1.99219 z m -216.25,0.0312 0,2.07031 7.43945,1.99414 0,-2.07031 -7.43945,-1.99414 z m 171.44336,0.38672 c 0.066,0.0788 0.11447,0.15744 0.19336,0.23633 l 2.57617,2.57617 10.38672,2.7832 7.72656,0 -20.88281,-5.5957 z m -55.82227,1.60547 1.04883,2.35351 6.11133,1.63672 1.39844,0 c 0.64,0 1.20093,-0.55914 0.96093,-1.11914 l -0.16211,-0.36328 -9.35742,-2.50781 z m 16.06641,0.16406 0,2.07031 6.55078,1.75586 7.72656,0 -14.27734,-3.82617 z m -106.51758,0.44727 1.07031,2.33984 c 0.003,0.007 0.008,0.013 0.0117,0.0195 l 3.80274,1.01953 3.30468,0 c 0.55341,0 1.04649,-0.36019 1.16993,-0.87109 l -9.35938,-2.50781 z m 65.33008,0.93945 0,1.32031 c 0,0.36353 0.16493,0.66164 0.41601,0.86328 l 0.95704,0.25586 4.94726,0 c 0.40081,0 0.72127,-0.20207 0.91797,-0.5 l -7.23828,-1.93945 z m 125.75,0.56641 0,0.7539 c 0,0.64 0.47914,1.11914 1.11914,1.11914 l 5.20117,0 c 0.1404,0 0.269,-0.0333 0.39063,-0.0762 l -6.71094,-1.79687 z m -216.25,0.0312 0,0.72265 c 0,0.64 0.47914,1.11914 1.11914,1.11914 l 5.20117,0 c 0.11581,0 0.21883,-0.033 0.32227,-0.0625 l -6.64258,-1.77929 z m 50.32812,1.0625 c 0.45724,0.43135 1.00267,0.77929 1.96485,0.77929 l 0.9414,0 -2.90625,-0.77929 z"
       id="text4155-7"
       inkscape:connector-curvature="0" />
    <path
       style="font-style:normal;font-weight:normal;font-size:40px;line-height:125%;font-family:sans-serif;letter-spacing:0px;word-spacing:0px;fill:#ffffff;fill-opacity:1;stroke:none;stroke-width:1px;stroke-linecap:butt;stroke-linejoin:miter;stroke-opacity:1"
       d="m 276.03418,724.44226 c -0.64,0 -1.11914,0.47914 -1.11914,1.11914 l 0,53.60156 c 0,0.64 0.47914,1.11914 1.11914,1.11914 l 5.20117,0 c 0.64,0 1.11914,-0.47914 1.11914,-1.11914 l 0,-41.04101 18.80078,41.11914 c 0.24,0.48 0.6393,1.04101 1.2793,1.04101 l 5.83984,0 c 0.64,0 1.19922,-0.47914 1.19922,-1.11914 l 0,-53.60156 c 0,-0.64 -0.55922,-1.11914 -1.19922,-1.11914 l -5.19921,0 c -0.56001,0 -1.1211,0.47914 -1.1211,1.11914 l 0,38.32031 -17.11914,-38.32031 c -0.32,-0.72 -0.56117,-1.11914 -1.20117,-1.11914 l -7.59961,0 z m 44.85352,0 c -0.64001,0 -1.11915,0.55914 -1.11915,1.11914 l 0,47.28125 c 0,0.88 0.31891,1.52008 0.87891,2.08008 l 4.48047,4.47851 c 0.48,0.48 1.04008,0.88086 2.08008,0.88086 l 20.64062,0 c 0.88,0 1.52,-0.40086 2,-0.88086 l 4.48047,-4.47851 c 0.64,-0.64 0.87891,-1.2 0.87891,-2 l 0,-47.36133 c 0,-0.56 -0.47914,-1.11914 -1.11914,-1.11914 l -5.20117,0 c -0.64001,0 -1.11915,0.55914 -1.11915,1.11914 l 0,44.64062 c 0,0.16001 -0.0802,0.24032 -0.16015,0.32032 l -2,2 c -0.16,0.16 -0.48094,0.32031 -0.96094,0.32031 l -14.31836,0 c -0.32,0 -0.5607,-0.16031 -0.7207,-0.32031 l -2.08008,-2 -0.32031,-0.56055 0,-44.40039 c 0,-0.56 -0.47914,-1.11914 -1.11914,-1.11914 l -5.20117,0 z m 45.64648,0 c -0.64,0 -1.11914,0.47914 -1.11914,1.11914 l 0,53.60156 c 0,0.64 0.47914,1.11914 1.11914,1.11914 l 5.20117,0 c 0.64,0 1.11914,-0.47914 1.11914,-1.11914 l 0,-19.76172 6.48047,-8.23828 12.48047,28 c 0.24,0.56 0.79945,1.11914 1.43945,1.11914 l 5.83985,0 c 0.64,0 1.19898,-0.55914 0.95898,-1.11914 l -15.51953,-34.88086 14.56055,-18.7207 c 0.4,-0.48 -0.0807,-1.11914 -0.72071,-1.11914 l -6.63867,0 c -0.64,0 -1.04141,0.23883 -1.44141,0.79883 l -17.43945,22.88086 0,-22.56055 c 0,-0.64 -0.47914,-1.11914 -1.11914,-1.11914 l -5.20117,0 z m 41.1875,0 c -0.64,0 -1.11914,0.47914 -1.11914,1.11914 l 0,53.60156 c 0,0.64 0.47914,1.11914 1.11914,1.11914 l 29.04102,0 c 0.56,0 1.11914,-0.47914 1.11914,-1.11914 l 0,-5.20117 c 0,-0.64 -0.55914,-1.11914 -1.11914,-1.11914 l -22.72071,0 0,-16.80078 17.91992,0 c 0.64,0 1.1211,-0.47914 1.1211,-1.11914 l 0,-5.20117 c 0,-0.64 -0.4811,-1.11914 -1.1211,-1.11914 l -17.91992,0 0,-16.72071 22.72071,0 c 0.56,0 1.11914,-0.47914 1.11914,-1.11914 l 0,-5.20117 c 0,-0.64 -0.55914,-1.11914 -1.11914,-1.11914 l -29.04102,0 z m 45.22852,0 c -0.72002,0 -1.27993,0.15883 -1.91993,0.79883 l -4.55859,4.48047 c -0.64,0.64 -0.80078,1.12007 -0.80078,2.08007 l 0,41.04102 c 0,0.64 0.16086,1.36008 0.88086,2.08008 l 4.47851,4.47851 c 0.48,0.48 1.04,0.88086 2,0.88086 l 20.72071,0 c 0.96,0 1.52,-0.40086 2,-0.88086 l 4.48046,-4.47851 c 0.64,-0.64 0.87891,-1.44039 0.87891,-2.40039 l 0,-40.56055 c 0,-0.56 0.001,-1.44023 -0.79883,-2.24023 l -4.56054,-4.48047 c -0.72,-0.72 -1.36,-0.79883 -2,-0.79883 l -20.80078,0 z m 39.33398,0 c -0.64,0 -1.11914,0.47914 -1.11914,1.11914 l 0,53.60156 c 0,0.64 0.47914,1.11914 1.11914,1.11914 l 5.20117,0 c 0.64,0 1.11914,-0.47914 1.11914,-1.11914 l 0,-19.4414 19.04102,0 c 0.72,0 1.35812,-0.15891 2.07812,-0.87891 l 4.48047,-4.48047 c 0.56,-0.56 0.88086,-1.28 0.88086,-2 l 0,-20.48047 c 0,-0.8 -0.24086,-1.52015 -0.88086,-2.16015 l -4.48047,-4.48047 c -0.72,-0.72 -1.51812,-0.79883 -2.07812,-0.79883 l -25.36133,0 z m -36.61328,7.43945 15.43945,0 c 0.16,0 0.32055,2.4e-4 0.56055,0.24024 l 2,2 0,36.08007 c 0,0.16001 -0.0802,0.3204 -0.16016,0.4004 l -1.91992,1.91992 c -0.16,0.16 -0.40078,0.32031 -0.80078,0.32031 l -14.95899,0 c -0.24,0 -0.48062,-0.16031 -0.64062,-0.32031 l -1.91992,-1.91992 c -0.08,-0.08 -0.16016,-0.24038 -0.16016,-0.4004 l 0,-36.08007 2,-2 c 0.24,-0.24 0.40055,-0.24024 0.56055,-0.24024 z m 42.93359,0 16.08008,0 c 0.32,0 0.40055,1.6e-4 0.56055,0.16016 l 2.08008,2.08008 c 0.16,0.16 0.32031,0.4807 0.32031,0.7207 l 0,14.55859 -0.32031,0.56055 -2.08008,2 c -0.16,0.16 -0.32047,0.24031 -0.48047,0.32031 l -16.16016,0 0,-20.40039 z"
       id="text4155"
       inkscape:connector-curvature="0" />
    <path
       style="fill:url(#linearGradient5275);fill-opacity:1"
       d="m 312.5,812.00504 0,35 175,0 0,-35 -175,0 z m 34.80665,7.03125 7.76953,0 c 0.24,0 0.51,0.0588 0.75,0.29883 l 1.71093,1.67968 c 0.18,0.18 0.29883,0.45125 0.29883,0.78125 l 0,3.20899 c 0,0.24 -0.17992,0.41992 -0.41992,0.41992 l -1.94922,0 c -0.24,0 -0.41992,-0.17992 -0.41992,-0.41992 l 0,-2.36914 -0.81055,-0.81055 -5.82031,0 c -0.09,0 -0.14969,0.0305 -0.17969,0.0605 l -0.75,0.77929 c -0.12,0.12 -0.15039,0.18079 -0.15039,0.30079 l 0,13.01953 c 0,0.09 0.0304,0.21007 0.15039,0.33008 l 0.75,0.75 c 0.06,0.06 0.18078,0.11914 0.30078,0.11914 l 5.51954,0 c 0.09,0 0.18023,-0.0592 0.24023,-0.11914 l 0.75,-0.75 0,-4.80079 -3.57031,0 c -0.24,0 -0.41992,-0.20992 -0.41992,-0.41992 l 0,-1.94922 c -10e-6,-0.24 0.17992,-0.41992 0.41992,-0.41992 l 5.93945,0 c 0.24,0 0.41992,0.17992 0.41992,0.41992 l 0,8.2793 c 0,0.15 -0.12008,0.36102 -0.33008,0.54102 l -1.67968,1.67968 c -0.21,0.21 -0.42,0.33008 -0.75,0.33008 l -7.74024,0 c -0.33,0 -0.5393,-0.0901 -0.77929,-0.33008 l -1.67969,-1.67968 c -0.3,-0.3 -0.33008,-0.39 -0.33008,-0.75 l 0,-15.41993 c 0,-0.33 0.0901,-0.51 0.33008,-0.75 l 1.67969,-1.71093 c 0.29999,-0.3 0.65999,-0.29883 0.75,-0.29883 z m 14.15624,0 1.95118,0 c 0.24,0 0.41992,0.20922 0.41992,0.44922 l 0,20.07031 c 0,0.24 -0.17992,0.41992 -0.41992,0.41992 l -1.95118,0 c -0.24,0 -0.41992,-0.17992 -0.41992,-0.41992 l 0,-20.07031 c 0,-0.24 0.17992,-0.44922 0.41992,-0.44922 z m 5.13282,0 12,0 c 0.24,0 0.41992,0.20922 0.41992,0.44922 l 0,1.94922 c 0,0.21 -0.17992,0.41992 -0.41992,0.41992 l -4.58985,0 0,17.76172 c 0,0.21 -0.17937,0.35937 -0.35937,0.35937 l -2.09961,0 c -0.18,0 -0.36133,-0.14937 -0.36133,-0.35937 l 0,-17.76172 -4.58984,0 c -0.24,0 -0.41992,-0.20992 -0.41992,-0.41992 l 0,-1.94922 c 0,-0.24 0.17992,-0.44922 0.41992,-0.44922 z m 15.19922,0 1.95117,0 c 0.24,0 0.41992,0.17992 0.41992,0.41992 l 0,9.24023 7.70898,0 0,-9.24023 c 0,-0.24 0.17993,-0.41992 0.41993,-0.41992 l 1.95117,0 c 0.24,0 0.41992,0.17992 0.41992,0.41992 l 0,20.09961 c 0,0.24 -0.17992,0.41992 -0.41992,0.41992 l -1.95117,0 c -0.24,0 -0.41993,-0.17992 -0.41993,-0.41992 l 0,-8.07031 -7.70898,0 0,8.07031 c 0,0.24 -0.17992,0.41992 -0.41992,0.41992 l -1.95117,0 c -0.24,0 -0.41993,-0.17992 -0.41993,-0.41992 l 0,-20.09961 c 0,-0.24 0.17993,-0.41992 0.41993,-0.41992 z m 16.55078,0 1.95117,0 c 0.24,0 0.41992,0.20992 0.41992,0.41992 l 0,16.64844 0.11914,0.21094 0.78125,0.75 c 0.06,0.06 0.14953,0.11914 0.26953,0.11914 l 5.36914,0 c 0.18,0 0.30133,-0.0592 0.36133,-0.11914 l 0.75,-0.75 c 0.03,-0.03 0.0586,-0.0592 0.0586,-0.11915 l 0,-16.74023 c 0,-0.21 0.17992,-0.41992 0.41992,-0.41992 l 1.95117,0 c 0.24,0 0.41992,0.20992 0.41992,0.41992 l 0,17.75977 c 0,0.3 -0.0901,0.51 -0.33008,0.75 l -1.67968,1.67968 c -0.18,0.18 -0.42,0.33008 -0.75,0.33008 l -7.74024,0 c -0.39,0 -0.60125,-0.15008 -0.78125,-0.33008 l -1.67969,-1.67968 c -0.21,-0.21 -0.33007,-0.45125 -0.33007,-0.78125 l 0,-17.72852 c 0,-0.21 0.17992,-0.41992 0.41992,-0.41992 z m 16.55468,0 9.51172,0 c 0.18,0 0.4493,-0.0312 0.7793,0.29883 l 1.67969,1.67968 c 0.36,0.39 0.33008,0.66125 0.33008,0.78125 l 0,5.49024 c 0,0.27 -0.0301,0.47929 -0.33008,0.7793 l -1.16992,1.16992 1.16992,1.19922 c 0.3,0.3 0.33008,0.48125 0.33008,0.78125 l 0,6 c 0,0.3 -0.15008,0.57 -0.33008,0.75 l -1.67969,1.67968 c -0.24,0.24 -0.4493,0.33008 -0.7793,0.33008 l -9.51172,0 c -0.24,0 -0.41992,-0.17992 -0.41992,-0.41992 l 0,-20.09961 c 0,-0.24 0.17992,-0.41992 0.41992,-0.41992 z m 21.67969,0 1.95117,0 c 0.24,0 0.41993,0.20922 0.41993,0.44922 l 0,20.07031 c 0,0.24 -0.17993,0.41992 -0.41993,0.41992 l -1.95117,0 c -0.24,0 -0.41992,-0.17992 -0.41992,-0.41992 l 0,-20.07031 c 0,-0.24 0.17992,-0.44922 0.41992,-0.44922 z m 8.3125,0 7.80078,0 c 0.24,0 0.48,0.0288 0.75,0.29883 l 1.71094,1.67968 c 0.3,0.3 0.29883,0.62985 0.29883,0.83985 l 0,15.21094 c 0,0.36 -0.0901,0.66039 -0.33008,0.90039 l -1.67969,1.67968 c -0.18,0.18 -0.39,0.33008 -0.75,0.33008 l -7.76953,0 c -0.36,0 -0.57,-0.15008 -0.75,-0.33008 l -1.67968,-1.67968 c -0.27,-0.27 -0.33008,-0.54125 -0.33008,-0.78125 l 0,-15.38868 c 0,-0.36 0.0588,-0.54125 0.29882,-0.78125 l 1.71094,-1.67968 c 0.24,-0.24 0.44875,-0.29883 0.71875,-0.29883 z m -27.62109,2.78906 0,6.26953 5.93945,0 c 0.06,0 0.18078,-0.0284 0.30078,-0.14844 l 0.75,-0.75 c 0.12,-0.12 0.15039,-0.15078 0.15039,-0.30078 l 0,-3.87109 c 0,-0.18 -0.0604,-0.23938 -0.15039,-0.35938 l -0.75,-0.77929 c -0.03,-0.03 -0.0897,-0.0605 -0.17968,-0.0605 l -6.06055,0 z m 28.64258,0 c -0.06,0 -0.12094,-1.6e-4 -0.21094,0.0898 l -0.75,0.75 0,13.53125 c 0,0.06 0.0306,0.11844 0.0606,0.14844 l 0.71875,0.72071 c 0.06,0.06 0.15023,0.11914 0.24023,0.11914 l 5.61133,0 c 0.15,0 0.23883,-0.0592 0.29883,-0.11914 l 0.7207,-0.72071 c 0.03,-0.03 0.0605,-0.0884 0.0605,-0.14844 l 0,-13.53125 -0.75,-0.75 c -0.09,-0.09 -0.15094,-0.0898 -0.21094,-0.0898 l -5.78906,0 z m -28.64258,9.06055 0,6.29883 6.11914,0 0.12109,-0.0899 0.75,-0.75 c 0.12,-0.12 0.15039,-0.21008 0.15039,-0.33008 l 0,-3.83984 c 0,-0.12 -0.0304,-0.29992 -0.15039,-0.41992 l -0.75,-0.75 -0.21093,-0.11914 -6.0293,0 z m 13.32812,5.8789 1.95118,0 c 0.24,0 0.41992,0.17993 0.41992,0.41993 l 0,2.43164 c 0,0.21 -0.20992,0.35937 -0.41992,0.35937 l -1.95118,0 c -0.21,0 -0.41992,-0.14937 -0.41992,-0.35937 l 0,-2.43164 c 0,-0.24 0.17992,-0.41993 0.41992,-0.41993 z"
       id="rect5269"
       inkscape:connector-curvature="0" />
    <path
       style="fill:url(#linearGradient5317);fill-opacity:1"
       d="m 289.79297,799.00586 10.10351,17.5 -10.10351,17.5 17.70703,0 0.0969,-27 16.61011,-8 -14.20703,0 z"
       id="path5295"
       inkscape:connector-curvature="0"
       sodipodi:nodetypes="cccccccc" />
    <path
       style="fill:url(#linearGradient5317-0);fill-opacity:1"
       d="m 475.79297,799.00586 16.68181,8 0.0252,27 17.70703,0 -10.10351,-17.5 10.10351,-17.5 -20.20703,0 z"
       id="path5295-8"
       inkscape:connector-curvature="0"
       sodipodi:nodetypes="cccccccc" />
    <path
       sodipodi:type="star"
       style="fill:#ffffff;fill-opacity:1"
       id="path5389"
       sodipodi:sides="5"
       sodipodi:cx="400"
       sodipodi:cy="692.46297"
       sodipodi:r1="18.397423"
       sodipodi:r2="9.1987114"
       sodipodi:arg1="-1.5707963"
       sodipodi:arg2="-0.9424778"
       inkscape:flatsided="false"
       inkscape:rounded="0.05"
       inkscape:randomized="0"
       d="m 400,674.06553 c 0.61086,0 4.91268,10.59646 5.40687,10.95551 0.49419,0.35905 11.90135,1.17584 12.09012,1.7568 0.18876,0.58095 -8.55973,7.94671 -8.7485,8.52767 -0.18876,0.58096 2.55944,11.68222 2.06524,12.04127 -0.49419,0.35905 -10.20288,-5.68512 -10.81373,-5.68512 -0.61085,0 -10.31954,6.04417 -10.81373,5.68512 -0.4942,-0.35905 2.254,-11.46031 2.06524,-12.04127 -0.18877,-0.58096 -8.93726,-7.94672 -8.7485,-8.52768 0.18877,-0.58095 11.59593,-1.39774 12.09012,-1.75679 0.49419,-0.35905 4.79602,-10.95551 5.40687,-10.95551 z"
       inkscape:transform-center-y="-1.7490863" />
    <path
       sodipodi:type="star"
       style="fill:#ffffff;fill-opacity:1"
       id="path5389-9"
       sodipodi:sides="5"
       sodipodi:cx="435"
       sodipodi:cy="696.71989"
       sodipodi:r1="13.141016"
       sodipodi:r2="6.570508"
       sodipodi:arg1="-1.5707963"
       sodipodi:arg2="-0.9424778"
       inkscape:flatsided="false"
       inkscape:rounded="0.05"
       inkscape:randomized="0"
       d="m 435,683.57889 c 0.43633,0 3.50905,7.5689 3.86205,7.82537 0.35299,0.25646 8.50097,0.83988 8.6358,1.25485 0.13483,0.41497 -6.11409,5.67623 -6.24893,6.0912 -0.13483,0.41497 1.82817,8.34444 1.47518,8.60091 -0.353,0.25646 -7.28778,-4.0608 -7.7241,-4.0608 -0.43632,0 -7.3711,4.31726 -7.7241,4.06079 -0.35299,-0.25646 1.61001,-8.18593 1.47518,-8.6009 -0.13484,-0.41497 -6.38376,-5.67623 -6.24893,-6.0912 0.13483,-0.41497 8.28281,-0.99839 8.6358,-1.25485 0.353,-0.25647 3.42573,-7.82537 3.86205,-7.82537 z"
       inkscape:transform-center-y="-1.2493686" />
    <path
       sodipodi:type="star"
       style="fill:#ffffff;fill-opacity:1"
       id="path5389-9-4"
       sodipodi:sides="5"
       sodipodi:cx="365"
       sodipodi:cy="696.71991"
       sodipodi:r1="13.141016"
       sodipodi:r2="6.570508"
       sodipodi:arg1="-1.5707963"
       sodipodi:arg2="-0.9424778"
       inkscape:flatsided="false"
       inkscape:rounded="0.05"
       inkscape:randomized="0"
       d="m 365,683.57889 c 0.43633,0 3.50905,7.5689 3.86205,7.82537 0.35299,0.25646 8.50097,0.83988 8.6358,1.25485 0.13483,0.41497 -6.11409,5.67623 -6.24893,6.0912 -0.13483,0.41497 1.82817,8.34444 1.47518,8.60091 -0.353,0.25646 -7.28778,-4.0608 -7.7241,-4.0608 -0.43632,0 -7.3711,4.31726 -7.7241,4.06079 -0.35299,-0.25646 1.61001,-8.18593 1.47518,-8.6009 -0.13484,-0.41497 -6.38376,-5.67623 -6.24893,-6.0912 0.13483,-0.41497 8.28281,-0.99839 8.6358,-1.25485 0.353,-0.25647 3.42573,-7.82537 3.86205,-7.82537 z"
       inkscape:transform-center-y="-1.2493686" />
    <rect
       style="fill:url(#linearGradient5293-2);fill-opacity:1.0"
       id="rect5287-7"
       width="800"
       height="600"
       x="800"
       y="452.36218" />
    <path
       style="fill:url(#linearGradient5435-4);fill-opacity:1.0"
       d="M 1200 642.00977 C 1180.6314 642.00977 1041.948 693.68445 1032.2637 704.50977 C 1022.5794 715.33508 1022.5794 818.68445 1032.2637 829.50977 C 1041.948 840.33508 1180.6314 892.00977 1200 892.00977 C 1219.3686 892.00977 1358.052 840.33508 1367.7363 829.50977 C 1377.4206 818.68445 1377.4206 715.33508 1367.7363 704.50977 C 1358.052 693.68445 1219.3686 642.00977 1200 642.00977 z M 1200 674.06641 C 1200.6109 674.06641 1204.9122 684.66243 1205.4062 685.02148 C 1205.9004 685.38054 1217.3073 686.19639 1217.4961 686.77734 C 1217.6849 687.3583 1208.9368 694.72373 1208.748 695.30469 C 1208.5593 695.88564 1211.3086 706.9886 1210.8145 707.34766 C 1210.3203 707.70671 1200.6109 701.66211 1200 701.66211 C 1199.3891 701.66211 1189.6797 707.70671 1189.1855 707.34766 C 1188.6914 706.9886 1191.4407 695.88564 1191.252 695.30469 C 1191.0632 694.72373 1182.3132 687.3583 1182.502 686.77734 C 1182.6907 686.19639 1194.0995 685.38054 1194.5938 685.02148 C 1195.0878 684.66243 1199.3891 674.06641 1200 674.06641 z M 1165 683.57812 C 1165.4363 683.57812 1168.5083 691.14783 1168.8613 691.4043 C 1169.2143 691.66076 1177.3632 692.24323 1177.498 692.6582 C 1177.6329 693.07317 1171.3829 698.33503 1171.248 698.75 C 1171.1132 699.16497 1173.0776 707.0951 1172.7246 707.35156 C 1172.3716 707.60803 1165.4363 703.29102 1165 703.29102 C 1164.5637 703.29102 1157.6284 707.60803 1157.2754 707.35156 C 1156.9224 707.0951 1158.8848 699.16497 1158.75 698.75 C 1158.6152 698.33503 1152.3671 693.07317 1152.502 692.6582 C 1152.6368 692.24323 1160.7857 691.66076 1161.1387 691.4043 C 1161.4917 691.14783 1164.5637 683.57813 1165 683.57812 z M 1235 683.57812 C 1235.4363 683.57812 1238.5083 691.14783 1238.8613 691.4043 C 1239.2143 691.66076 1247.3632 692.24323 1247.498 692.6582 C 1247.6329 693.07317 1241.3829 698.33503 1241.248 698.75 C 1241.1132 699.16497 1243.0776 707.0951 1242.7246 707.35156 C 1242.3716 707.60803 1235.4363 703.29102 1235 703.29102 C 1234.5637 703.29102 1227.6284 707.60803 1227.2754 707.35156 C 1226.9224 707.0951 1228.8848 699.16497 1228.75 698.75 C 1228.6152 698.33503 1222.3671 693.07317 1222.502 692.6582 C 1222.6368 692.24323 1230.7857 691.66076 1231.1387 691.4043 C 1231.4917 691.14783 1234.5637 683.57813 1235 683.57812 z M 1076.0352 724.44141 L 1083.6348 724.44141 C 1084.2748 724.44141 1084.5159 724.84055 1084.8359 725.56055 L 1086.5703 729.44141 L 1087.6367 729.44141 C 1088.1356 729.44141 1088.3908 729.69037 1088.6309 730.13867 L 1086.6426 729.60547 L 1087.6934 731.95898 L 1089.6992 732.49609 L 1090.75 734.84961 L 1088.7461 734.3125 L 1089.7969 736.66602 L 1091.8027 737.20312 L 1092.8535 739.55469 L 1090.8477 739.01758 L 1091.8965 741.36914 L 1093.9043 741.90625 L 1094.9531 744.25781 L 1092.9473 743.7207 L 1093.998 746.07227 L 1096.0039 746.60938 L 1097.0547 748.96094 L 1095.0488 748.42383 L 1096.0996 750.77734 L 1098.1055 751.31445 L 1099.1562 753.66602 L 1097.1504 753.12891 L 1098.2012 755.48047 L 1100.207 756.01758 L 1101.2598 758.37109 L 1099.252 757.83398 L 1100.3027 760.18555 L 1101.9531 760.62695 L 1101.9531 725.56055 C 1101.9531 724.92055 1102.5162 724.44141 1103.0762 724.44141 L 1108.2754 724.44141 C 1108.9154 724.44141 1109.4746 724.92055 1109.4746 725.56055 L 1109.4746 729.51172 L 1113.4766 730.58398 L 1113.4766 732.6543 L 1109.4746 731.58203 L 1109.4746 733.6543 L 1113.4766 734.72656 L 1113.4766 736.79688 L 1109.4746 735.72461 L 1109.4746 737.79492 L 1113.4766 738.86719 L 1113.4766 740.9375 L 1109.4746 739.86523 L 1109.4746 741.9375 L 1113.4766 743.00977 L 1113.4766 745.08008 L 1109.4746 744.00781 L 1109.4746 746.07812 L 1113.4766 747.15039 L 1113.4766 749.2207 L 1109.4746 748.14844 L 1109.4746 750.21875 L 1113.4766 751.29102 L 1113.4766 753.36133 L 1109.4746 752.28906 L 1109.4746 754.35938 L 1113.4766 755.43164 L 1113.4766 757.50195 L 1109.4746 756.42969 L 1109.4746 758.5 L 1113.4766 759.57227 L 1113.4766 761.64453 L 1109.4746 760.57227 L 1109.4746 762.64062 L 1113.4766 763.71289 L 1113.4766 765.7832 L 1109.4746 764.71094 L 1109.4746 766.78125 L 1113.4766 767.85352 L 1113.4766 769.92383 L 1109.4746 768.85156 L 1109.4746 770.92188 L 1113.4766 771.99414 L 1113.4766 774.06445 L 1109.4746 772.99219 L 1109.4746 775.0625 L 1113.4766 776.13477 L 1113.4766 778.20508 L 1109.4746 777.13281 L 1109.4746 779.16211 C 1109.4746 779.17621 1109.4712 779.1892 1109.4707 779.20312 L 1113.4766 780.27734 L 1113.4766 782.34766 L 1105.7637 780.28125 L 1102.4355 780.28125 C 1101.7955 780.28125 1101.3964 779.72023 1101.1562 779.24023 L 1085.9512 745.98633 L 1082.3555 745.02344 L 1082.3555 747.09375 L 1086.3555 748.16602 L 1086.3555 750.23633 L 1082.3555 749.16406 L 1082.3555 751.23438 L 1086.3555 752.30664 L 1086.3555 754.37695 L 1082.3555 753.30664 L 1082.3555 755.37695 L 1086.3555 756.44727 L 1086.3555 758.51758 L 1082.3555 757.44727 L 1082.3555 759.51562 L 1086.3555 760.58594 L 1086.3555 762.65625 L 1082.3555 761.58594 L 1082.3555 763.65625 L 1086.3555 764.72656 L 1086.3555 766.79688 L 1082.3555 765.72656 L 1082.3555 767.79688 L 1086.3555 768.86914 L 1086.3555 770.93945 L 1082.3555 769.86719 L 1082.3555 771.93945 L 1086.3555 773.00977 L 1086.3555 775.08008 L 1082.3555 774.00977 L 1082.3555 776.08008 L 1086.3555 777.15039 L 1086.3555 779.22266 L 1082.3555 778.15039 L 1082.3555 779.16211 C 1082.3555 779.56577 1082.151 779.89013 1081.8496 780.08594 L 1086.3555 781.29297 L 1086.3555 783.36328 L 1078.916 781.36914 L 1078.916 780.28125 L 1076.0352 780.28125 C 1075.3952 780.28125 1074.916 779.80211 1074.916 779.16211 L 1074.916 725.56055 C 1074.916 724.92055 1075.3952 724.44141 1076.0352 724.44141 z M 1120.8887 724.44141 L 1126.0898 724.44141 C 1126.7298 724.44141 1127.209 725.00055 1127.209 725.56055 L 1127.209 730.125 L 1131.209 731.19727 L 1131.209 733.26758 L 1127.209 732.19531 L 1127.209 734.26562 L 1131.209 735.33789 L 1131.209 737.4082 L 1127.209 736.33594 L 1127.209 738.40625 L 1131.209 739.47852 L 1131.209 741.54883 L 1127.209 740.47656 L 1127.209 742.54492 L 1131.209 743.61719 L 1131.209 745.6875 L 1127.209 744.61523 L 1127.209 746.68945 L 1131.209 747.76172 L 1131.209 749.83203 L 1127.209 748.75977 L 1127.209 750.83008 L 1131.209 751.90234 L 1131.209 753.97266 L 1127.209 752.90039 L 1127.209 754.9707 L 1131.209 756.04297 L 1131.209 758.11328 L 1127.209 757.04102 L 1127.209 759.11133 L 1131.209 760.18359 L 1131.209 762.25391 L 1127.209 761.18164 L 1127.209 763.25 L 1131.209 764.32227 L 1131.209 766.39453 L 1127.209 765.32227 L 1127.209 767.39258 L 1131.209 768.46484 L 1131.209 770.53516 L 1127.209 769.46289 L 1127.209 769.96094 L 1127.5293 770.52148 L 1129.1113 772.04297 L 1131.209 772.60547 L 1131.209 772.8418 L 1144.6484 772.8418 C 1145.1284 772.8418 1145.4494 772.68148 1145.6094 772.52148 L 1147.6094 770.52148 C 1147.6896 770.44148 1147.7695 770.36117 1147.7695 770.20117 L 1147.7695 725.56055 C 1147.7695 725.00055 1148.2487 724.44141 1148.8887 724.44141 L 1154.0898 724.44141 C 1154.7298 724.44141 1155.209 725.00055 1155.209 725.56055 L 1155.209 729.44141 L 1155.5781 729.44141 L 1159.1777 730.40625 C 1159.1857 730.45845 1159.209 730.50755 1159.209 730.56055 L 1159.209 732.48438 L 1155.209 731.41211 L 1155.209 733.48633 L 1159.209 734.55859 L 1159.209 736.62891 L 1155.209 735.55664 L 1155.209 737.62695 L 1159.209 738.69922 L 1159.209 740.76953 L 1155.209 739.69727 L 1155.209 741.76758 L 1159.209 742.83984 L 1159.209 744.91016 L 1155.209 743.83789 L 1155.209 745.9082 L 1159.209 746.98047 L 1159.209 749.05078 L 1155.209 747.98047 L 1155.209 750.05078 L 1159.209 751.12109 L 1159.209 753.19141 L 1155.209 752.12109 L 1155.209 754.19336 L 1159.209 755.26367 L 1159.209 757.33398 L 1155.209 756.26367 L 1155.209 758.33398 L 1159.209 759.4043 L 1159.209 761.47461 L 1155.209 760.4043 L 1155.209 762.47266 L 1159.209 763.54297 L 1159.209 765.61328 L 1155.209 764.54297 L 1155.209 766.61328 L 1159.209 767.68359 L 1159.209 769.75391 L 1155.209 768.68359 L 1155.209 770.75391 L 1159.209 771.82422 L 1159.209 773.89648 L 1155.209 772.82617 L 1155.209 772.92188 C 1155.209 773.631 1155.0021 774.15413 1154.5137 774.70898 L 1159.209 775.9668 L 1159.209 777.92188 C 1159.209 777.96218 1159.2002 777.99616 1159.1992 778.03516 L 1152.9023 776.34766 L 1151.2695 777.98047 L 1158.3633 779.88086 C 1158.3503 779.89486 1158.3421 779.90787 1158.3281 779.92188 L 1156.7363 781.51562 L 1149.6133 779.60742 C 1149.1632 779.98848 1148.5968 780.28125 1147.8496 780.28125 L 1144.4023 780.28125 L 1155.1016 783.14844 L 1153.8496 784.40039 C 1153.7188 784.53119 1153.5742 784.65518 1153.418 784.76758 L 1136.6777 780.28125 L 1128.9492 780.28125 L 1147.6094 785.28125 L 1139.8828 785.28125 L 1126.3965 781.66797 L 1124.6504 779.92188 C 1124.3573 779.62887 1124.1346 779.31107 1123.9844 778.95117 L 1124.9336 779.20508 L 1120.6484 774.92188 C 1120.0884 774.36187 1119.7695 773.7218 1119.7695 772.8418 L 1119.7695 725.56055 C 1119.7695 725.00055 1120.2487 724.44141 1120.8887 724.44141 z M 1166.5352 724.44141 L 1171.7363 724.44141 C 1172.3763 724.44141 1172.8555 724.92055 1172.8555 725.56055 L 1172.8555 729.92969 L 1176.8555 731.00195 L 1176.8555 733.07227 L 1172.8555 732 L 1172.8555 734.07227 L 1176.8555 735.14453 L 1176.8555 737.21484 L 1172.8555 736.14258 L 1172.8555 738.21484 L 1176.8555 739.28711 L 1176.8555 741.35742 L 1172.8555 740.28516 L 1172.8555 742.35547 L 1176.5039 743.33398 L 1190.2949 725.24023 C 1190.6949 724.68023 1191.0963 724.44141 1191.7363 724.44141 L 1198.375 724.44141 C 1199.0147 724.44141 1199.4957 725.08055 1199.0957 725.56055 L 1196.0781 729.44141 L 1201.9395 729.44141 L 1203.0527 729.74023 C 1203.2603 729.96943 1203.3224 730.28855 1203.0957 730.56055 L 1202.2832 731.60352 L 1195.7559 729.85547 L 1194.4219 731.57031 L 1200.9512 733.31836 L 1199.6191 735.0332 L 1193.0898 733.2832 L 1191.7578 734.99609 L 1198.2871 736.74609 L 1196.9531 738.45898 L 1190.4238 736.70898 L 1189.0918 738.42188 L 1195.6211 740.17188 L 1194.2891 741.88672 L 1187.7598 740.13672 L 1186.4258 741.85156 L 1192.9531 743.59961 L 1191.623 745.31445 L 1185.0938 743.56445 L 1184.5352 744.28125 L 1185.1445 745.64844 L 1190.2891 747.02734 L 1188.957 748.74023 L 1186.1895 747.99805 L 1187.2344 750.34961 L 1189.25 750.88867 L 1190.2949 753.24023 L 1188.2812 752.70117 L 1189.3262 755.05078 L 1191.3418 755.58984 L 1192.3887 757.94141 L 1190.373 757.40039 L 1191.4199 759.75195 L 1193.4336 760.29297 L 1194.4805 762.64258 L 1192.4648 762.10352 L 1193.5098 764.45312 L 1195.5273 764.99414 L 1196.5723 767.34375 L 1194.5566 766.80273 L 1195.6016 769.1543 L 1197.6191 769.69531 L 1198.6641 772.04492 L 1196.6484 771.50391 L 1197.6934 773.85547 L 1199.7109 774.39648 L 1200.7559 776.74609 L 1198.7402 776.20508 L 1199.7852 778.55664 L 1201.8027 779.09766 L 1202.8496 781.44727 L 1198.4961 780.28125 L 1193.2559 780.28125 C 1192.6159 780.28125 1192.0564 779.72211 1191.8164 779.16211 L 1182.2051 757.59961 L 1181.0664 759.04883 L 1174.5137 757.29297 L 1173.168 759.00391 L 1179.7207 760.75977 L 1178.375 762.4707 L 1172.8555 760.99023 L 1172.8555 763.05859 L 1177.0312 764.17773 L 1176.8555 764.40039 L 1176.8555 766.20117 L 1172.8555 765.12891 L 1172.8555 767.19922 L 1176.8555 768.27148 L 1176.8555 770.3418 L 1172.8555 769.26953 L 1172.8555 771.3418 L 1176.8555 772.41211 L 1176.8555 774.48242 L 1172.8555 773.41211 L 1172.8555 775.48242 L 1176.8555 776.55273 L 1176.8555 778.625 L 1172.8555 777.55273 L 1172.8555 779.16211 C 1172.8555 779.31927 1172.8246 779.46656 1172.7715 779.59961 L 1176.8555 780.69531 L 1176.8555 782.76562 L 1169.416 780.77148 L 1169.416 780.28125 L 1166.5352 780.28125 C 1165.8952 780.28125 1165.416 779.80211 1165.416 779.16211 L 1165.416 725.56055 C 1165.416 724.92055 1165.8952 724.44141 1166.5352 724.44141 z M 1207.7227 724.44141 L 1236.7637 724.44141 C 1237.3237 724.44141 1237.8828 724.92055 1237.8828 725.56055 L 1237.8828 730.76172 C 1237.8828 730.77109 1237.8811 730.77976 1237.8809 730.78906 L 1241.8828 731.86133 L 1241.8828 733.93164 L 1234.2285 731.88086 L 1226.5039 731.88086 L 1241.8574 735.99414 C 1241.7418 736.51384 1241.2532 736.88086 1240.7637 736.88086 L 1237.4316 736.88086 L 1218.7715 731.88086 L 1214.043 731.88086 L 1214.043 732.6875 L 1229.7031 736.88281 L 1221.9785 736.88281 L 1214.043 734.75781 L 1214.043 736.82812 L 1218.043 737.89844 L 1218.043 739.96875 L 1214.043 738.89844 L 1214.043 740.96875 L 1218.043 742.03906 L 1218.043 744.10938 L 1214.043 743.03906 L 1214.043 745.10938 L 1218.043 746.18164 L 1218.043 748.25195 L 1214.043 747.17969 L 1214.043 748.60156 L 1231.9629 748.60156 C 1232.6029 748.60156 1233.084 749.0807 1233.084 749.7207 L 1233.084 754.35352 L 1237.084 755.42383 L 1237.084 757.49414 L 1231.6602 756.04102 L 1223.9277 756.04102 L 1237.084 759.56641 L 1237.084 759.92383 C 1237.084 760.56383 1236.6029 761.04297 1235.9629 761.04297 L 1234.8711 761.04297 L 1216.2012 756.04102 L 1214.043 756.04102 L 1214.043 757.5332 L 1227.1445 761.04297 L 1219.418 761.04297 L 1214.043 759.60352 L 1214.043 761.67188 L 1218.043 762.74219 L 1218.043 764.81445 L 1214.043 763.74219 L 1214.043 765.8125 L 1218.043 766.88477 L 1218.043 768.95508 L 1214.043 767.88281 L 1214.043 769.95508 L 1218.043 771.02734 L 1218.043 772.8418 L 1236.7637 772.8418 C 1237.3237 772.8418 1237.8828 773.32094 1237.8828 773.96094 L 1237.8828 777.8418 L 1240.7637 777.8418 C 1241.3237 777.8418 1241.8828 778.32094 1241.8828 778.96094 L 1241.8828 779.48438 L 1237.8828 778.41211 L 1237.8828 779.16211 C 1237.8828 779.7213 1237.452 780.13701 1236.9707 780.23828 L 1241.8828 781.55469 L 1241.8828 783.625 L 1229.4023 780.28125 L 1221.6758 780.28125 L 1240.3359 785.28125 L 1232.6094 785.28125 L 1213.9492 780.28125 L 1207.7227 780.28125 C 1207.0827 780.28125 1206.6035 779.80211 1206.6035 779.16211 L 1206.6035 725.56055 C 1206.6035 724.92055 1207.0827 724.44141 1207.7227 724.44141 z M 1252.9512 724.44141 L 1273.752 724.44141 C 1274.392 724.44141 1275.032 724.52023 1275.752 725.24023 L 1280.3125 729.7207 C 1280.9454 730.35376 1281.0723 731.03131 1281.0996 731.56641 L 1281.7324 732.1875 L 1281.1113 732.02148 L 1281.1113 734.08984 L 1284.5703 735.01758 C 1285.111 735.73158 1285.1113 736.46944 1285.1113 736.96094 L 1285.1113 737.23242 L 1281.1113 736.16016 L 1281.1113 738.23242 L 1285.1113 739.30469 L 1285.1113 741.375 L 1281.1113 740.30469 L 1281.1113 742.37305 L 1285.1113 743.44336 L 1285.1113 745.51562 L 1281.1113 744.44336 L 1281.1113 746.51562 L 1285.1113 747.58789 L 1285.1113 749.6582 L 1281.1113 748.58789 L 1281.1113 750.6582 L 1285.1113 751.72852 L 1285.1113 753.79883 L 1281.1113 752.72852 L 1281.1113 754.79883 L 1285.1113 755.86914 L 1285.1113 757.93945 L 1281.1113 756.86914 L 1281.1113 758.93945 L 1285.1113 760.00977 L 1285.1113 762.08008 L 1281.1113 761.00977 L 1281.1113 763.07812 L 1285.1113 764.15039 L 1285.1113 766.2207 L 1281.1113 765.14844 L 1281.1113 767.2207 L 1285.1113 768.29102 L 1285.1113 770.36133 L 1281.1113 769.29102 L 1281.1113 771.36133 L 1285.1113 772.43164 L 1285.1113 774.50195 L 1281.0156 773.4043 C 1280.899 773.981 1280.6637 774.49059 1280.2324 774.92188 L 1279.9609 775.19336 L 1285.1113 776.57227 L 1285.1113 777.52148 C 1285.1113 777.91158 1285.0586 778.26817 1284.9688 778.60547 L 1278.3281 776.82617 L 1276.6934 778.45898 L 1283.793 780.36133 L 1282.1602 781.99414 L 1274.875 780.04102 C 1274.5658 780.18658 1274.2065 780.28125 1273.752 780.28125 L 1268.0391 780.28125 L 1280.5254 783.62695 L 1279.752 784.40039 C 1279.4221 784.73039 1279.0447 785.01366 1278.5352 785.16406 L 1260.3125 780.28125 L 1253.0312 780.28125 C 1252.0713 780.28125 1251.5113 779.88039 1251.0312 779.40039 L 1246.5527 774.92188 C 1245.8327 774.20188 1245.6719 773.4818 1245.6719 772.8418 L 1245.6719 731.80078 C 1245.6719 730.84078 1245.8327 730.3607 1246.4727 729.7207 L 1251.0312 725.24023 C 1251.6712 724.60023 1252.2312 724.44141 1252.9512 724.44141 z M 1292.2852 724.44141 L 1317.6465 724.44141 C 1318.2065 724.44141 1319.0046 724.52023 1319.7246 725.24023 L 1324.2031 729.7207 C 1324.8431 730.3607 1325.0859 731.08086 1325.0859 731.88086 L 1325.0859 733.44922 L 1327.6113 734.12695 L 1328.2031 734.7207 C 1328.7623 735.2799 1329.0055 735.90464 1329.0605 736.58594 L 1325.0859 735.52148 L 1325.0859 737.5918 L 1329.0859 738.66406 L 1329.0859 740.73438 L 1325.0859 739.66211 L 1325.0859 741.73438 L 1329.0859 742.80664 L 1329.0859 744.87695 L 1325.0859 743.80469 L 1325.0859 745.875 L 1329.0859 746.94727 L 1329.0859 749.01758 L 1325.0859 747.94531 L 1325.0859 750.01562 L 1329.0859 751.08789 L 1329.0859 753.1582 L 1325.0859 752.08594 L 1325.0859 752.36133 C 1325.0859 752.93596 1324.8731 753.50671 1324.5059 754 L 1329.0859 755.22852 L 1329.0859 757.30078 L 1322.918 755.64648 L 1321.2852 757.2793 L 1328.3613 759.17578 C 1328.3081 759.23768 1328.2621 759.30428 1328.2031 759.36328 L 1326.752 760.81641 L 1319.6426 758.91211 C 1318.9568 759.56209 1318.3382 759.7207 1317.6465 759.7207 L 1314.9375 759.7207 L 1325.1211 762.44922 L 1323.7266 763.84375 C 1323.6334 763.93705 1323.5441 763.99727 1323.4531 764.07227 L 1307.209 759.7207 L 1299.4824 759.7207 L 1318.1504 764.72266 L 1310.4238 764.72266 L 1298.6055 761.55664 L 1298.6055 763.625 L 1302.6973 764.7207 L 1302.6055 764.7207 L 1302.6055 766.76562 L 1298.6055 765.69531 L 1298.6055 767.76562 L 1302.6055 768.83789 L 1302.6055 770.9082 L 1298.6055 769.83594 L 1298.6055 771.9082 L 1302.6055 772.97852 L 1302.6055 775.04883 L 1298.6055 773.97852 L 1298.6055 776.04883 L 1302.6055 777.11914 L 1302.6055 779.18945 L 1298.6055 778.11914 L 1298.6055 779.16211 C 1298.6055 779.54989 1298.4158 779.86364 1298.1348 780.0625 L 1302.6055 781.25977 L 1302.6055 783.33008 L 1295.166 781.33789 L 1295.166 780.28125 L 1292.2852 780.28125 C 1291.6452 780.28125 1291.166 779.80211 1291.166 779.16211 L 1291.166 725.56055 C 1291.166 724.92055 1291.6452 724.44141 1292.2852 724.44141 z M 1240.5781 729.44141 L 1240.7637 729.44141 C 1240.979 729.44141 1241.1837 729.52864 1241.3672 729.65234 L 1240.5781 729.44141 z M 1257.4023 731.88086 L 1273.6719 736.24023 L 1273.6719 734.16797 L 1265.1348 731.88086 L 1257.4023 731.88086 z M 1303.7676 731.88086 L 1317.6465 735.59961 L 1317.6465 734.8418 C 1317.6465 734.6018 1317.4862 734.28109 1317.3262 734.12109 L 1316.3984 733.19336 L 1311.5 731.88086 L 1303.7676 731.88086 z M 1298.6055 732.56836 L 1298.6055 734.64062 L 1306.9785 736.88281 L 1302.6055 736.88281 L 1302.6055 737.78125 L 1298.6055 736.71094 L 1298.6055 738.78125 L 1302.6055 739.85156 L 1302.6055 741.92188 L 1298.6055 740.85156 L 1298.6055 742.92188 L 1302.6055 743.99219 L 1302.6055 746.0625 L 1298.6055 744.99219 L 1298.6055 747.0625 L 1302.6055 748.13281 L 1302.6055 750.20508 L 1298.6055 749.13281 L 1298.6055 751.20312 L 1302.6055 752.27539 L 1302.6055 752.28125 L 1314.7656 752.28125 C 1314.9256 752.20125 1315.0861 752.12094 1315.2461 751.96094 L 1317.3262 749.96094 L 1317.6465 749.40039 L 1317.6465 736.88281 L 1314.709 736.88281 L 1298.6055 732.56836 z M 1254.1523 733.08008 L 1253.1113 734.12109 L 1253.1113 734.87109 L 1260.6172 736.88281 L 1259.6719 736.88281 C 1259.5119 736.88281 1259.3513 736.88305 1259.1113 737.12305 L 1257.9863 738.24805 L 1253.1113 736.94336 L 1253.1113 739.01367 L 1257.1113 740.08398 L 1257.1113 742.15625 L 1253.1113 741.08398 L 1253.1113 743.1543 L 1257.1113 744.22656 L 1257.1113 746.29688 L 1253.1113 745.22461 L 1253.1113 747.29492 L 1257.1113 748.36719 L 1257.1113 750.4375 L 1253.1113 749.36523 L 1253.1113 751.43555 L 1257.1113 752.50781 L 1257.1113 754.57812 L 1253.1113 753.50586 L 1253.1113 755.57812 L 1257.1113 756.64844 L 1257.1113 758.71875 L 1253.1113 757.64844 L 1253.1113 759.7168 L 1257.1113 760.78906 L 1257.1113 762.85938 L 1253.1113 761.78711 L 1253.1113 763.85938 L 1257.1113 764.92969 L 1257.1113 767 L 1253.1113 765.92969 L 1253.1113 768 L 1257.1113 769.07031 L 1257.1113 771.14062 L 1253.1113 770.07031 L 1253.1113 770.20117 C 1253.1113 770.36117 1253.1915 770.52156 1253.2715 770.60156 L 1255.1914 772.52148 C 1255.3514 772.68148 1255.592 772.8418 1255.832 772.8418 L 1270.791 772.8418 C 1271.191 772.8418 1271.4318 772.68148 1271.5918 772.52148 L 1273.5117 770.60156 C 1273.5918 770.52156 1273.6719 770.36117 1273.6719 770.20117 L 1273.6719 736.88281 L 1268.3438 736.88281 L 1254.1523 733.08008 z M 1082.3555 738.12109 L 1082.3555 738.8125 L 1082.7148 738.9082 L 1082.3555 738.12109 z M 1082.3555 740.88281 L 1082.3555 742.95312 L 1084.873 743.62695 L 1083.7949 741.26758 L 1082.3555 740.88281 z M 1172.8555 744.42578 L 1172.8555 746.49609 L 1173.8848 746.77148 L 1175.1934 745.05273 L 1172.8555 744.42578 z M 1179.3359 751.16211 L 1178.5488 752.16406 L 1179.9492 752.53906 L 1179.3359 751.16211 z M 1177.2031 753.87305 L 1175.8594 755.58203 L 1182.0449 757.24023 L 1180.998 754.89062 L 1177.2031 753.87305 z M 1101.3516 762.53711 L 1101.9531 763.88086 L 1101.9531 762.69727 L 1101.3516 762.53711 z M 1214.043 772.02539 L 1214.043 772.8418 L 1217.0879 772.8418 L 1214.043 772.02539 z M 1250.3594 779.68555 L 1271.2422 785.28125 L 1263.5156 785.28125 L 1253.1289 782.49805 L 1250.5527 779.92188 C 1250.4738 779.84297 1250.4254 779.76455 1250.3594 779.68555 z M 1194.5371 781.29102 L 1203.8945 783.79883 L 1204.0566 784.16211 C 1204.2966 784.72211 1203.7357 785.28125 1203.0957 785.28125 L 1201.6973 785.28125 L 1195.5859 783.64453 L 1194.5371 781.29102 z M 1210.6035 781.45508 L 1224.8809 785.28125 L 1217.1543 785.28125 L 1210.6035 783.52539 L 1210.6035 781.45508 z M 1104.0859 781.90234 L 1113.4453 784.41016 C 1113.3218 784.92106 1112.8288 785.28125 1112.2754 785.28125 L 1108.9707 785.28125 L 1105.168 784.26172 C 1105.166 784.25472 1105.1562 784.25219 1105.1562 784.24219 L 1104.0859 781.90234 z M 1169.416 782.8418 L 1176.6543 784.78125 C 1176.4576 785.07915 1176.1371 785.28125 1175.7363 785.28125 L 1170.7891 785.28125 L 1169.832 785.02539 C 1169.5809 784.82379 1169.416 784.52561 1169.416 784.16211 L 1169.416 782.8418 z M 1295.166 783.4082 L 1301.877 785.20508 C 1301.7554 785.24808 1301.6267 785.28125 1301.4863 785.28125 L 1296.2852 785.28125 C 1295.6452 785.28125 1295.166 784.80211 1295.166 784.16211 L 1295.166 783.4082 z M 1078.916 783.43945 L 1085.5586 785.21875 C 1085.4551 785.24775 1085.3521 785.28125 1085.2363 785.28125 L 1080.0352 785.28125 C 1079.3952 785.28125 1078.916 784.80211 1078.916 784.16211 L 1078.916 783.43945 z M 1129.2441 784.50195 L 1132.1504 785.28125 L 1131.209 785.28125 C 1130.2468 785.28125 1129.7013 784.93335 1129.2441 784.50195 z M 1089.793 799.00586 L 1110 799.00586 L 1124.207 799.00586 L 1107.5977 807.00586 L 1107.5 834.00586 L 1089.793 834.00586 L 1099.8965 816.50586 L 1089.793 799.00586 z M 1275.793 799.00586 L 1290 799.00586 L 1310.207 799.00586 L 1300.1035 816.50586 L 1310.207 834.00586 L 1292.5 834.00586 L 1292.4746 807.00586 L 1275.793 799.00586 z M 1112.5 812.00586 L 1287.5 812.00586 L 1287.5 847.00586 L 1112.5 847.00586 L 1112.5 812.00586 z M 1147.3066 819.03711 C 1147.2166 819.03711 1146.8566 819.03594 1146.5566 819.33594 L 1144.877 821.04688 C 1144.6369 821.28686 1144.5469 821.46686 1144.5469 821.79688 L 1144.5469 837.2168 C 1144.5469 837.5768 1144.577 837.6668 1144.877 837.9668 L 1146.5566 839.64648 C 1146.7966 839.88648 1147.0059 839.97656 1147.3359 839.97656 L 1155.0762 839.97656 C 1155.4062 839.97656 1155.6162 839.85648 1155.8262 839.64648 L 1157.5059 837.9668 C 1157.7159 837.7868 1157.8359 837.57578 1157.8359 837.42578 L 1157.8359 829.14648 C 1157.8359 828.90648 1157.656 828.72656 1157.416 828.72656 L 1151.4766 828.72656 C 1151.2366 828.72656 1151.0566 828.90648 1151.0566 829.14648 L 1151.0566 831.0957 C 1151.0566 831.3057 1151.2366 831.51562 1151.4766 831.51562 L 1155.0469 831.51562 L 1155.0469 836.31641 L 1154.2969 837.06641 C 1154.2369 837.12651 1154.1466 837.18555 1154.0566 837.18555 L 1148.5371 837.18555 C 1148.4171 837.18555 1148.2963 837.12641 1148.2363 837.06641 L 1147.4863 836.31641 C 1147.3659 836.19641 1147.3359 836.07633 1147.3359 835.98633 L 1147.3359 822.9668 C 1147.3359 822.8468 1147.3663 822.78602 1147.4863 822.66602 L 1148.2363 821.88672 C 1148.2663 821.85672 1148.326 821.82617 1148.416 821.82617 L 1154.2363 821.82617 L 1155.0469 822.63672 L 1155.0469 825.00586 C 1155.0469 825.24586 1155.2268 825.42578 1155.4668 825.42578 L 1157.416 825.42578 C 1157.656 825.42578 1157.8359 825.24586 1157.8359 825.00586 L 1157.8359 821.79688 C 1157.8359 821.46686 1157.7171 821.19562 1157.5371 821.01562 L 1155.8262 819.33594 C 1155.5862 819.09604 1155.3162 819.03711 1155.0762 819.03711 L 1147.3066 819.03711 z M 1161.4629 819.03711 C 1161.2229 819.03711 1161.043 819.24633 1161.043 819.48633 L 1161.043 839.55664 C 1161.043 839.79664 1161.2229 839.97656 1161.4629 839.97656 L 1163.4141 839.97656 C 1163.6541 839.97656 1163.834 839.79664 1163.834 839.55664 L 1163.834 819.48633 C 1163.834 819.24633 1163.6541 819.03711 1163.4141 819.03711 L 1161.4629 819.03711 z M 1166.5957 819.03711 C 1166.3557 819.03711 1166.1758 819.24633 1166.1758 819.48633 L 1166.1758 821.43555 C 1166.1758 821.64555 1166.3557 821.85547 1166.5957 821.85547 L 1171.1855 821.85547 L 1171.1855 839.61719 C 1171.1855 839.82719 1171.3669 839.97656 1171.5469 839.97656 L 1173.6465 839.97656 C 1173.8265 839.97656 1174.0059 839.82719 1174.0059 839.61719 L 1174.0059 821.85547 L 1178.5957 821.85547 C 1178.8357 821.85547 1179.0156 821.64555 1179.0156 821.43555 L 1179.0156 819.48633 C 1179.0156 819.24633 1178.8357 819.03711 1178.5957 819.03711 L 1166.5957 819.03711 z M 1181.7949 819.03711 C 1181.5549 819.03711 1181.375 819.21703 1181.375 819.45703 L 1181.375 839.55664 C 1181.375 839.79664 1181.5549 839.97656 1181.7949 839.97656 L 1183.7461 839.97656 C 1183.9861 839.97656 1184.166 839.79664 1184.166 839.55664 L 1184.166 831.48633 L 1191.875 831.48633 L 1191.875 839.55664 C 1191.875 839.79664 1192.0549 839.97656 1192.2949 839.97656 L 1194.2461 839.97656 C 1194.4861 839.97656 1194.666 839.79664 1194.666 839.55664 L 1194.666 819.45703 C 1194.666 819.21703 1194.4861 819.03711 1194.2461 819.03711 L 1192.2949 819.03711 C 1192.0549 819.03711 1191.875 819.21703 1191.875 819.45703 L 1191.875 828.69727 L 1184.166 828.69727 L 1184.166 819.45703 C 1184.166 819.21703 1183.9861 819.03711 1183.7461 819.03711 L 1181.7949 819.03711 z M 1198.3457 819.03711 C 1198.1057 819.03711 1197.9258 819.24703 1197.9258 819.45703 L 1197.9258 837.18555 C 1197.9258 837.51555 1198.0459 837.7568 1198.2559 837.9668 L 1199.9355 839.64648 C 1200.1155 839.82648 1200.3268 839.97656 1200.7168 839.97656 L 1208.457 839.97656 C 1208.787 839.97656 1209.027 839.82648 1209.207 839.64648 L 1210.8867 837.9668 C 1211.1267 837.7268 1211.2168 837.5168 1211.2168 837.2168 L 1211.2168 819.45703 C 1211.2168 819.24703 1211.0369 819.03711 1210.7969 819.03711 L 1208.8457 819.03711 C 1208.6057 819.03711 1208.4258 819.24703 1208.4258 819.45703 L 1208.4258 836.19727 C 1208.4258 836.25737 1208.3972 836.28641 1208.3672 836.31641 L 1207.6172 837.06641 C 1207.5572 837.12661 1207.4359 837.18555 1207.2559 837.18555 L 1201.8867 837.18555 C 1201.7667 837.18555 1201.6772 837.12641 1201.6172 837.06641 L 1200.8359 836.31641 L 1200.7168 836.10547 L 1200.7168 819.45703 C 1200.7168 819.24703 1200.5369 819.03711 1200.2969 819.03711 L 1198.3457 819.03711 z M 1214.9004 819.03711 C 1214.6604 819.03711 1214.4805 819.21703 1214.4805 819.45703 L 1214.4805 839.55664 C 1214.4805 839.79664 1214.6604 839.97656 1214.9004 839.97656 L 1224.4121 839.97656 C 1224.7421 839.97656 1224.9514 839.88648 1225.1914 839.64648 L 1226.8711 837.9668 C 1227.0511 837.7868 1227.2012 837.5168 1227.2012 837.2168 L 1227.2012 831.2168 C 1227.2012 830.9168 1227.1711 830.73555 1226.8711 830.43555 L 1225.7012 829.23633 L 1226.8711 828.06641 C 1227.1712 827.76641 1227.2012 827.55711 1227.2012 827.28711 L 1227.2012 821.79688 C 1227.2012 821.67686 1227.2311 821.40562 1226.8711 821.01562 L 1225.1914 819.33594 C 1224.8614 819.00604 1224.5921 819.03711 1224.4121 819.03711 L 1214.9004 819.03711 z M 1236.5801 819.03711 C 1236.3401 819.03711 1236.1602 819.24633 1236.1602 819.48633 L 1236.1602 839.55664 C 1236.1602 839.79664 1236.3401 839.97656 1236.5801 839.97656 L 1238.5312 839.97656 C 1238.7713 839.97656 1238.9512 839.79664 1238.9512 839.55664 L 1238.9512 819.48633 C 1238.9512 819.24633 1238.7714 819.03711 1238.5312 819.03711 L 1236.5801 819.03711 z M 1244.8926 819.03711 C 1244.6226 819.03711 1244.4138 819.09594 1244.1738 819.33594 L 1242.4629 821.01562 C 1242.2231 821.25563 1242.1641 821.43687 1242.1641 821.79688 L 1242.1641 837.18555 C 1242.1641 837.42555 1242.2241 837.6968 1242.4941 837.9668 L 1244.1738 839.64648 C 1244.3538 839.82648 1244.5638 839.97656 1244.9238 839.97656 L 1252.6934 839.97656 C 1253.0534 839.97656 1253.2634 839.82648 1253.4434 839.64648 L 1255.123 837.9668 C 1255.3631 837.7268 1255.4531 837.42641 1255.4531 837.06641 L 1255.4531 821.85547 C 1255.4531 821.64547 1255.4543 821.31562 1255.1543 821.01562 L 1253.4434 819.33594 C 1253.1734 819.06604 1252.9334 819.03711 1252.6934 819.03711 L 1244.8926 819.03711 z M 1217.2715 821.82422 L 1223.332 821.82422 C 1223.4217 821.82422 1223.4817 821.85672 1223.5117 821.88672 L 1224.2617 822.66602 C 1224.3521 822.78602 1224.4121 822.84539 1224.4121 823.02539 L 1224.4121 826.89648 C 1224.4121 827.04648 1224.3817 827.07727 1224.2617 827.19727 L 1223.5117 827.94727 C 1223.3917 828.06767 1223.2709 828.0957 1223.2109 828.0957 L 1217.2715 828.0957 L 1217.2715 821.82617 L 1217.2715 821.82422 z M 1245.9141 821.82617 L 1251.7031 821.82617 C 1251.7631 821.82617 1251.8241 821.82602 1251.9141 821.91602 L 1252.6641 822.66602 L 1252.6641 836.19727 C 1252.6641 836.25777 1252.6335 836.3157 1252.6035 836.3457 L 1251.8828 837.06641 C 1251.8228 837.12651 1251.734 837.18555 1251.584 837.18555 L 1245.9727 837.18555 C 1245.8827 837.18555 1245.7924 837.12641 1245.7324 837.06641 L 1245.0137 836.3457 C 1244.9837 836.3157 1244.9531 836.25727 1244.9531 836.19727 L 1244.9531 822.66602 L 1245.7031 821.91602 C 1245.7931 821.82582 1245.8541 821.82617 1245.9141 821.82617 z M 1217.2715 830.88672 L 1223.3008 830.88672 L 1223.5117 831.00391 L 1224.2617 831.75391 C 1224.3821 831.87391 1224.4121 832.05578 1224.4121 832.17578 L 1224.4121 836.01562 C 1224.4121 836.13562 1224.3817 836.2257 1224.2617 836.3457 L 1223.5117 837.0957 L 1223.3906 837.18555 L 1217.2715 837.18555 L 1217.2715 830.88672 z M 1230.5996 836.76562 C 1230.3596 836.76564 1230.1797 836.94555 1230.1797 837.18555 L 1230.1797 839.61719 C 1230.1797 839.82719 1230.3896 839.97656 1230.5996 839.97656 L 1232.5508 839.97656 C 1232.7608 839.97656 1232.9707 839.82719 1232.9707 839.61719 L 1232.9707 837.18555 C 1232.9707 836.94555 1232.7908 836.76562 1232.5508 836.76562 L 1230.5996 836.76562 z "
       id="path5429-2" />
  </g>
</svg>
